<svg width="480" height="480" viewBox="0 0 480 480" fill="none" xmlns="http://www.w3.org/2000/svg">
<rect width="480" height="480" fill="url(#paint0_linear)"/>
<path d="M375.284 303.058C351.606 354.354 299.934 389.925 240.002 389.925C180.069 389.925 128.397 354.353 104.72 303.057L85.8796 311.838C112.953 369.821 171.784 410 240 410C308.216 410 367.047 369.821 394.12 311.838L375.284 303.058Z" fill="white"/>
<path d="M99.8049 188.932L80.2239 181.799C73.6087 199.955 70 219.556 70 240C70 260.444 73.6087 280.045 80.2239 298.201L99.8049 291.068C94.0639 275.129 90.9336 257.932 90.9336 240C90.9336 222.068 94.0639 204.871 99.8049 188.932Z" fill="white"/>
<path d="M410 240C410 219.556 406.391 199.955 399.776 181.799L380.199 188.93C385.94 204.87 389.071 222.067 389.071 240C389.071 257.933 385.94 275.13 380.199 291.07L399.776 298.201C406.391 280.045 410 260.444 410 240Z" fill="white"/>
<path d="M394.121 168.162C367.048 110.179 308.216 70 240 70C171.784 70 112.953 110.179 85.8794 168.162L104.72 176.944C128.397 125.647 180.069 90.0747 240.002 90.0747C299.935 90.0747 351.606 125.646 375.284 176.942L394.121 168.162Z" fill="white"/>
<path fill-rule="evenodd" clip-rule="evenodd" d="M198.684 212.886V178.456L181.468 180.392V274C192.228 277.3 201.051 278.878 207.937 278.734C218.266 278.519 239.139 277.228 239.354 245.595C239.57 213.962 221.28 211.067 212.025 211.38C207.578 211.53 203.131 212.032 198.684 212.886ZM198.684 227.734C203.131 226.873 206.43 226.443 208.582 226.443C218.266 226.443 221.063 232.684 221.063 244.734C221.063 256.785 218.481 263.671 208.582 263.671C205.857 263.671 202.557 263.241 198.684 262.38V227.734Z" fill="white"/>
<path fill-rule="evenodd" clip-rule="evenodd" d="M142.519 211.384C164.253 211.599 167.696 223.865 167.696 231.397V274.22C161.025 276.802 150.481 278.739 140.152 278.739C124.658 278.739 113.468 272.283 113.468 257.65C113.468 242.802 123.152 236.561 143.81 236.561H150.481V232.688C150.481 228.815 148.114 226.448 138.861 226.448C134.127 226.448 127.312 227.237 118.418 228.815L119.709 214.182C126.838 212.288 134.24 211.355 141.914 211.38C142.115 211.381 142.317 211.382 142.519 211.384ZM150.481 249.043L139.291 249.473C134.342 249.688 131.114 251.41 131.114 256.359C131.114 263.245 138.215 264.106 141.443 264.106C143.595 264.106 146.608 263.819 150.481 263.245V249.043Z" fill="white"/>
<path fill-rule="evenodd" clip-rule="evenodd" d="M337.911 211.384C359.646 211.599 363.089 223.865 363.089 231.397V274.22C356.418 276.802 345.873 278.739 335.544 278.739C320.051 278.739 308.861 272.283 308.861 257.65C308.861 242.802 318.544 236.561 339.203 236.561H345.873V232.688C345.873 228.815 343.506 226.448 334.253 226.448C329.519 226.448 322.705 227.237 313.81 228.815L315.101 214.182C322.231 212.288 329.632 211.355 337.306 211.38C337.508 211.381 337.709 211.382 337.911 211.384ZM345.873 249.043L334.684 249.473C329.734 249.688 326.506 251.41 326.506 256.359C326.506 263.245 333.608 264.106 336.835 264.106C338.987 264.106 342 263.819 345.873 263.245V249.043Z" fill="white"/>
<path d="M293.855 213.747C287.411 211.882 281.151 210.949 275.076 210.949C265.963 210.949 248.193 212.669 248.193 231.392C248.193 247.403 260.016 249.715 270.012 250.975C280.653 252.315 283.327 254.2 283.327 257.215C283.327 262.38 280.69 264.101 272.057 263.671C266.302 263.384 258.888 262.236 249.815 260.228L251.62 275.291C260.014 277.48 266.97 278.628 272.488 278.734C283.684 278.949 300.684 278.741 300.684 257.646C300.684 240.031 285.797 238.074 277.346 236.963C277.21 236.946 277.076 236.928 276.944 236.911C276.867 236.9 276.791 236.89 276.715 236.88C269.46 235.917 265.55 234.653 265.55 231.608C265.55 228.38 266.393 225.582 275.682 225.797C281.874 225.941 288.406 226.802 295.278 228.38L293.855 213.747Z" fill="white"/>
<defs>
<linearGradient id="paint0_linear" x1="240" y1="0" x2="240" y2="480" gradientUnits="userSpaceOnUse">
<stop stop-color="#DC0032"/>
<stop offset="1" stop-color="#870A3C"/>
</linearGradient>
</defs>
</svg>
