<svg width="480" height="480" viewBox="0 0 480 480" fill="none" xmlns="http://www.w3.org/2000/svg">
<rect width="480" height="480" fill="#F3EFE7"/>
<path fill-rule="evenodd" clip-rule="evenodd" d="M225.301 313.254C205.482 308.938 193.52 298.304 189.416 294.177C178.259 283.333 167.847 265.011 167.847 239.21C167.847 215.279 177.516 195.087 191.275 181.626C200.644 172.474 211.94 166.423 225.301 163.75V109.091C193.362 112.332 166.79 125.753 147.766 144.233C125.453 165.921 109.091 198.826 109.091 238.088C109.091 278.098 125.453 311.004 147.766 332.691C165.417 350.123 190.281 364.062 225.301 367.906V313.254ZM250.909 314.561C273.628 311.064 287.201 299.039 291.629 294.587C302.786 283.743 313.198 265.42 313.198 239.62C313.198 215.688 303.529 195.496 289.77 182.035C279.291 171.8 266.402 165.442 250.909 163.353V109.091C285.005 111.412 313.303 125.237 333.279 144.643C355.592 166.33 371.954 199.236 371.954 238.498C371.954 278.508 355.592 311.413 333.279 333.101C314.827 351.324 288.491 365.73 250.909 368.776V314.561Z" fill="#FF5E52"/>
</svg>
