<svg width="480" height="480" viewBox="0 0 480 480" fill="none" xmlns="http://www.w3.org/2000/svg">
<rect width="480" height="480" fill="#F0F0F0"/>
<path d="M191.48 236.78C191.16 235.54 190.72 234.4 190.16 233.36C189.6 232.32 188.88 231.42 188 230.66C187.12 229.9 186.08 229.32 184.88 228.92C183.72 228.48 182.36 228.26 180.8 228.26C178.52 228.26 176.54 228.72 174.86 229.64C173.22 230.56 171.88 231.8 170.84 233.36C169.8 234.88 169.02 236.62 168.5 238.58C168.02 240.54 167.78 242.54 167.78 244.58C167.78 246.62 168.02 248.62 168.5 250.58C169.02 252.54 169.8 254.3 170.84 255.86C171.88 257.38 173.22 258.6 174.86 259.52C176.54 260.44 178.52 260.9 180.8 260.9C182.48 260.9 183.96 260.62 185.24 260.06C186.52 259.46 187.62 258.66 188.54 257.66C189.46 256.62 190.18 255.42 190.7 254.06C191.22 252.7 191.56 251.24 191.72 249.68H199.04C198.88 252.24 198.32 254.58 197.36 256.7C196.44 258.82 195.18 260.66 193.58 262.22C191.98 263.74 190.1 264.92 187.94 265.76C185.78 266.6 183.4 267.02 180.8 267.02C177.6 267.02 174.72 266.44 172.16 265.28C169.64 264.08 167.5 262.46 165.74 260.42C163.98 258.38 162.62 256 161.66 253.28C160.74 250.56 160.28 247.66 160.28 244.58C160.28 241.54 160.74 238.66 161.66 235.94C162.62 233.22 163.98 230.84 165.74 228.8C167.5 226.76 169.64 225.14 172.16 223.94C174.72 222.74 177.6 222.14 180.8 222.14C183.2 222.14 185.46 222.48 187.58 223.16C189.7 223.8 191.56 224.76 193.16 226.04C194.8 227.28 196.12 228.8 197.12 230.6C198.12 232.4 198.74 234.46 198.98 236.78H191.48Z" fill="#2C2C2C"/>
<path d="M204.901 223.16H211.741V239.06H211.861C212.701 237.66 213.941 236.5 215.581 235.58C217.261 234.62 219.121 234.14 221.161 234.14C224.561 234.14 227.241 235.02 229.201 236.78C231.161 238.54 232.141 241.18 232.141 244.7V266H225.301V246.5C225.221 244.06 224.701 242.3 223.741 241.22C222.781 240.1 221.281 239.54 219.241 239.54C218.081 239.54 217.041 239.76 216.121 240.2C215.201 240.6 214.421 241.18 213.781 241.94C213.141 242.66 212.641 243.52 212.281 244.52C211.921 245.52 211.741 246.58 211.741 247.7V266H204.901V223.16Z" fill="#2C2C2C"/>
<path d="M239.534 223.16H246.374V229.64H239.534V223.16ZM239.534 234.98H246.374V266H239.534V234.98Z" fill="#2C2C2C"/>
<path d="M254.007 223.16H260.847V266H254.007V223.16Z" fill="#2C2C2C"/>
<path d="M268.479 223.16H275.319V266H268.479V223.16Z" fill="#2C2C2C"/>
<path d="M282.952 223.16H289.792V229.64H282.952V223.16ZM282.952 234.98H289.792V266H282.952V234.98Z" fill="#2C2C2C"/>
<path d="M302.405 256.04C302.605 258.04 303.365 259.44 304.685 260.24C306.005 261.04 307.585 261.44 309.425 261.44C310.065 261.44 310.785 261.4 311.585 261.32C312.425 261.2 313.205 261 313.925 260.72C314.645 260.44 315.225 260.04 315.665 259.52C316.145 258.96 316.365 258.24 316.325 257.36C316.285 256.48 315.965 255.76 315.365 255.2C314.765 254.64 313.985 254.2 313.025 253.88C312.105 253.52 311.045 253.22 309.845 252.98C308.645 252.74 307.425 252.48 306.185 252.2C304.905 251.92 303.665 251.58 302.465 251.18C301.305 250.78 300.245 250.24 299.285 249.56C298.365 248.88 297.625 248.02 297.065 246.98C296.505 245.9 296.225 244.58 296.225 243.02C296.225 241.34 296.625 239.94 297.425 238.82C298.265 237.66 299.305 236.74 300.545 236.06C301.825 235.34 303.225 234.84 304.745 234.56C306.305 234.28 307.785 234.14 309.185 234.14C310.785 234.14 312.305 234.32 313.745 234.68C315.225 235 316.545 235.54 317.705 236.3C318.905 237.06 319.885 238.06 320.645 239.3C321.445 240.5 321.945 241.96 322.145 243.68H315.005C314.685 242.04 313.925 240.94 312.725 240.38C311.565 239.82 310.225 239.54 308.705 239.54C308.225 239.54 307.645 239.58 306.965 239.66C306.325 239.74 305.705 239.9 305.105 240.14C304.545 240.34 304.065 240.66 303.665 241.1C303.265 241.5 303.065 242.04 303.065 242.72C303.065 243.56 303.345 244.24 303.905 244.76C304.505 245.28 305.265 245.72 306.185 246.08C307.145 246.4 308.225 246.68 309.425 246.92C310.625 247.16 311.865 247.42 313.145 247.7C314.385 247.98 315.605 248.32 316.805 248.72C318.005 249.12 319.065 249.66 319.985 250.34C320.945 251.02 321.705 251.88 322.265 252.92C322.865 253.96 323.165 255.24 323.165 256.76C323.165 258.6 322.745 260.16 321.905 261.44C321.065 262.72 319.965 263.76 318.605 264.56C317.285 265.36 315.805 265.94 314.165 266.3C312.525 266.66 310.905 266.84 309.305 266.84C307.345 266.84 305.525 266.62 303.845 266.18C302.205 265.74 300.765 265.08 299.525 264.2C298.325 263.28 297.365 262.16 296.645 260.84C295.965 259.48 295.605 257.88 295.565 256.04H302.405Z" fill="#2C2C2C"/>
<path d="M342.578 266.84C340.098 266.84 337.878 266.44 335.918 265.64C333.998 264.8 332.358 263.66 330.998 262.22C329.678 260.78 328.658 259.06 327.938 257.06C327.258 255.06 326.918 252.86 326.918 250.46C326.918 248.1 327.258 245.92 327.938 243.92C328.658 241.92 329.678 240.2 330.998 238.76C332.358 237.32 333.998 236.2 335.918 235.4C337.878 234.56 340.098 234.14 342.578 234.14C345.058 234.14 347.258 234.56 349.178 235.4C351.138 236.2 352.778 237.32 354.098 238.76C355.458 240.2 356.478 241.92 357.158 243.92C357.878 245.92 358.238 248.1 358.238 250.46C358.238 252.86 357.878 255.06 357.158 257.06C356.478 259.06 355.458 260.78 354.098 262.22C352.778 263.66 351.138 264.8 349.178 265.64C347.258 266.44 345.058 266.84 342.578 266.84ZM342.578 261.44C344.098 261.44 345.418 261.12 346.538 260.48C347.658 259.84 348.578 259 349.298 257.96C350.018 256.92 350.538 255.76 350.858 254.48C351.218 253.16 351.398 251.82 351.398 250.46C351.398 249.14 351.218 247.82 350.858 246.5C350.538 245.18 350.018 244.02 349.298 243.02C348.578 241.98 347.658 241.14 346.538 240.5C345.418 239.86 344.098 239.54 342.578 239.54C341.058 239.54 339.738 239.86 338.618 240.5C337.498 241.14 336.578 241.98 335.858 243.02C335.138 244.02 334.598 245.18 334.238 246.5C333.918 247.82 333.758 249.14 333.758 250.46C333.758 251.82 333.918 253.16 334.238 254.48C334.598 255.76 335.138 256.92 335.858 257.96C336.578 259 337.498 259.84 338.618 260.48C339.738 261.12 341.058 261.44 342.578 261.44Z" fill="#2C2C2C"/>
<path d="M360.864 234.98H365.964V232.4C365.964 230.44 366.204 228.86 366.684 227.66C367.164 226.42 367.804 225.48 368.604 224.84C369.404 224.16 370.304 223.72 371.304 223.52C372.344 223.28 373.424 223.16 374.544 223.16C376.744 223.16 378.344 223.3 379.344 223.58V228.92C378.904 228.8 378.424 228.72 377.904 228.68C377.424 228.6 376.844 228.56 376.164 228.56C375.244 228.56 374.444 228.78 373.764 229.22C373.124 229.66 372.804 230.52 372.804 231.8V234.98H378.624V240.08H372.804V266H365.964V240.08H360.864V234.98Z" fill="#2C2C2C"/>
<path d="M379.73 234.98H384.89V225.68H391.73V234.98H397.91V240.08H391.73V256.64C391.73 257.36 391.75 257.98 391.79 258.5C391.87 259.02 392.01 259.46 392.21 259.82C392.45 260.18 392.79 260.46 393.23 260.66C393.67 260.82 394.27 260.9 395.03 260.9C395.51 260.9 395.99 260.9 396.47 260.9C396.95 260.86 397.43 260.78 397.91 260.66V265.94C397.15 266.02 396.41 266.1 395.69 266.18C394.97 266.26 394.23 266.3 393.47 266.3C391.67 266.3 390.21 266.14 389.09 265.82C388.01 265.46 387.15 264.96 386.51 264.32C385.91 263.64 385.49 262.8 385.25 261.8C385.05 260.8 384.93 259.66 384.89 258.38V240.08H379.73V234.98Z" fill="#2C2C2C"/>
<path fill-rule="evenodd" clip-rule="evenodd" d="M146 263.5C146 276.5 134.5 281 124 281C101.356 281 83 262.644 83 240C83 217.356 101.356 199 124 199C111.5 203.5 104.5 211 104.5 223.5C104.5 231.5 114 240.944 125.5 243.5C137 246.056 146 249 146 263.5ZM133 262C133 265.866 129.866 269 126 269C122.134 269 119 265.866 119 262C119 258.134 122.134 255 126 255C129.866 255 133 258.134 133 262ZM126 227C129.866 227 133 223.866 133 220C133 216.134 129.866 213 126 213C122.134 213 119 216.134 119 220C119 223.866 122.134 227 126 227Z" fill="#2C2C2C"/>
</svg>
