<svg width="480" height="480" viewBox="0 0 480 480" fill="none" xmlns="http://www.w3.org/2000/svg">
<rect width="480" height="480" fill="#222222"/>
<path d="M418.367 265.412C418.367 259.694 423.033 255.247 428.547 255.247C434.274 255.247 438.727 259.906 438.727 265.412C438.727 270.918 434.062 275.576 428.547 275.576C423.033 275.576 418.367 271.129 418.367 265.412Z" fill="#86BC25"/>
<path d="M112.536 238.094C112.536 249.953 109.567 258.847 103.204 265.2C96.8418 271.553 87.9341 274.73 76.4813 274.73H54V204.212H77.7538C88.9945 204.212 97.478 206.965 103.416 212.894C109.567 218.612 112.536 227.083 112.536 238.094ZM93.0242 238.73C93.0242 232.165 91.7517 227.506 89.2066 224.33C86.8736 221.365 82.844 219.671 77.7538 219.671H72.6637V259.059H76.9055C82.6319 259.059 86.6615 257.365 89.4187 253.977C91.7517 250.588 93.0242 245.506 93.0242 238.73Z" fill="white"/>
<path d="M191.857 204H174.254V274.729H191.857V204Z" fill="white"/>
<path d="M249.969 248.259C249.969 256.73 247.848 263.506 243.182 268.377C238.516 273.247 232.154 275.577 224.095 275.577C216.247 275.577 210.097 273.247 205.431 268.165C200.765 263.082 198.432 256.518 198.432 248.259C198.432 239.788 200.553 233.012 205.219 228.353C209.885 223.482 216.247 221.153 224.307 221.153C229.397 221.153 233.851 222.212 237.668 224.33C241.698 226.447 244.455 229.624 246.576 233.647C249.121 238.094 249.969 242.753 249.969 248.259ZM216.671 248.259C216.671 252.918 217.308 256.094 218.368 258.424C219.429 260.753 221.337 261.812 224.307 261.812C227.276 261.812 228.973 260.753 230.245 258.424C231.306 256.094 231.942 252.494 231.942 248.259C231.942 243.6 231.306 240.424 230.245 238.094C229.185 235.977 227.276 234.706 224.307 234.706C221.762 234.706 219.641 235.765 218.368 238.094C217.308 240.424 216.671 243.6 216.671 248.259Z" fill="white"/>
<path d="M274.784 222H257.18V274.518H274.784V222Z" fill="white"/>
<path d="M274.784 204H257.18V215.859H274.784V204Z" fill="white"/>
<path d="M310.626 261.176C312.959 261.176 315.929 260.541 319.11 259.482V272.823C316.777 273.882 314.444 274.518 312.323 274.941C310.202 275.365 307.657 275.576 304.688 275.576C298.749 275.576 294.508 274.094 291.751 270.918C289.205 267.953 287.721 263.294 287.721 257.153V235.553H281.57V222H287.721V208.87L305.536 205.906V222.423H316.989V235.765H305.536V256.094C305.96 259.694 307.445 261.176 310.626 261.176Z" fill="white"/>
<path d="M351.771 261.176C354.104 261.176 357.074 260.541 360.255 259.482V272.823C357.922 273.882 355.589 274.518 353.468 274.941C351.347 275.365 348.802 275.576 345.833 275.576C339.894 275.576 335.653 274.094 332.896 270.918C330.351 267.953 328.866 263.294 328.866 257.153V235.553H322.715V222H328.866V208.659L346.681 205.906V222.423H358.134V235.765H346.681V256.094C346.893 259.694 348.59 261.176 351.771 261.176Z" fill="white"/>
<path d="M407.763 227.294C403.521 223.059 397.582 221.153 389.947 221.153C381.888 221.153 375.525 223.482 371.071 228.353C366.618 233.224 364.497 240 364.497 248.894C364.497 257.365 366.83 264.141 371.496 268.8C376.374 273.459 382.948 275.788 391.432 275.788C395.674 275.788 399.067 275.577 402.036 274.941C404.793 274.306 407.975 273.459 410.52 271.977L407.975 260.118C406.066 260.965 403.945 261.6 402.248 262.024C399.703 262.659 396.734 262.871 393.765 262.871C390.371 262.871 387.614 262.024 385.705 260.541C383.797 258.847 382.736 256.518 382.736 253.553H414.337V245.294C414.125 237.459 411.792 231.53 407.763 227.294ZM382.736 241.906C382.948 239.153 383.797 236.824 385.069 235.553C386.342 234.282 388.038 233.647 390.371 233.647C392.492 233.647 394.613 234.282 395.886 235.765C397.158 237.247 397.794 239.153 398.007 241.906H382.736Z" fill="white"/>
<path d="M161.104 227.294C156.65 223.059 150.924 221.153 143.289 221.153C135.23 221.153 128.867 223.482 124.413 228.353C119.959 233.224 117.838 240 117.838 248.894C117.838 257.365 120.171 264.141 124.837 268.8C129.715 273.459 136.29 275.788 144.774 275.788C149.015 275.788 152.409 275.577 155.378 274.941C158.135 274.306 161.316 273.459 163.861 271.977L161.316 259.906C159.408 260.753 157.287 261.388 155.59 261.812C153.045 262.447 150.076 262.659 147.107 262.659C143.713 262.659 140.956 261.812 139.047 260.33C137.138 258.635 136.078 256.306 136.078 253.341H167.679V245.294C167.467 237.459 165.134 231.53 161.104 227.294ZM135.866 241.906C136.078 239.153 136.926 236.824 138.199 235.553C139.471 234.282 141.168 233.647 143.501 233.647C145.834 233.647 147.743 234.282 149.015 235.765C150.288 237.247 150.924 239.153 151.136 241.906H135.866Z" fill="white"/>
</svg>
