<svg width="480" height="480" viewBox="0 0 480 480" fill="none" xmlns="http://www.w3.org/2000/svg">
<rect width="480" height="480" fill="black"/>
<path fill-rule="evenodd" clip-rule="evenodd" d="M240 390C321.84 390 388.373 324.458 389.971 243H383H359.963H243V273H355.405C341.07 323.228 294.829 360 240 360C173.726 360 120 306.274 120 240C120 173.726 173.726 120 240 120C296.99 120 344.701 159.728 356.95 213H387.577C374.861 143.044 313.625 90 240 90C157.157 90 90 157.157 90 240C90 322.843 157.157 390 240 390Z" fill="#E2E2E2"/>
</svg>
