<svg width="480" height="480" viewBox="0 0 480 480" fill="none" xmlns="http://www.w3.org/2000/svg">
<rect width="480" height="480" fill="#111111"/>
<path fill-rule="evenodd" clip-rule="evenodd" d="M240 390C322.843 390 390 322.843 390 240C390 236.64 389.89 233.305 389.672 230H383H359.589H293V260H358.341C348.819 316.754 299.46 360 240 360C173.726 360 120 306.274 120 240C120 173.726 173.726 120 240 120C292.249 120 336.698 153.392 353.172 200H384.608C367.103 136.576 308.991 90 240 90C157.157 90 90 157.157 90 240C90 322.843 157.157 390 240 390Z" fill="#E2E2E2"/>
</svg>
