<svg width="480" height="480" viewBox="0 0 480 480" fill="none" xmlns="http://www.w3.org/2000/svg">
<rect width="480" height="480" fill="#EB3F43"/>
<g clip-path="url(#clip0)">
<path fill-rule="evenodd" clip-rule="evenodd" d="M296.124 160V267.738C296.124 269.141 296.886 269.901 297.881 270.077L305.496 270.837V275.806H230.641V270.837L237.026 270.077C238.139 269.901 238.9 269.141 238.9 267.738V220.563C238.9 219.335 238.431 218.4 237.201 217.932L229.411 215.418V212.145L256.881 205.13V267.271C256.881 269.024 258.287 270.252 260.337 270.252L267.717 270.369L274.687 270.252C276.737 270.252 278.143 268.966 278.143 267.271V175.433C278.143 174.205 277.674 173.27 276.444 172.802L268.654 170.289V167.015L296.124 160ZM38 221.966C38 187.534 64.65 165.144 96.0443 165.144C130.016 165.144 153.737 189.755 153.737 220.68C153.737 255.111 127.029 277.501 95.6929 277.501C61.7214 277.501 38 252.949 38 221.966ZM60.96 221.206C60.96 249.967 75.6029 270.837 96.0443 270.837C116.896 270.837 130.777 249.032 130.836 221.498C130.836 192.737 116.193 171.867 95.7514 171.867C74.8414 171.867 60.96 193.672 60.96 221.206ZM421.35 212.437V207.76H448V212.612L444.603 213.255C441.323 213.898 439.331 215.477 437.75 219.043L403.779 298.604C397.394 313.511 389.721 319.766 381.931 319.766C376.484 319.766 373.029 316.785 373.029 312.576C373.029 308.893 375.957 305.444 380.819 305.444C381.779 305.444 382.739 305.521 383.676 305.595C384.567 305.667 385.437 305.736 386.266 305.736C390.366 305.736 393.587 303.866 397.98 293.285L404.657 277.384L379.706 216.646C378.417 213.665 376.894 212.905 374.844 212.905H373.907C371.389 212.905 369.983 214.191 368.753 217.289L344.914 275.806H334.137L310.299 217.289C309.361 215.068 307.956 213.84 305.613 213.372L302.157 212.612V207.819H337.417V212.495L331.209 213.723C328.983 214.191 328.397 215.769 329.627 219.335L343.684 255.754C344.153 257.157 344.914 257.157 345.559 255.754L359.44 219.335C360.846 215.886 360.026 214.191 357.859 213.723L351.591 212.495V207.819H407.117V212.495L400.909 213.723C398.683 214.191 397.921 215.769 399.327 219.335L412.74 253.884C413.209 255.287 413.97 255.287 414.614 253.884L429.023 219.277C430.429 215.828 429.784 214.132 427.617 213.665L421.35 212.437ZM176.639 273L202.703 269.726C217.521 267.855 228.24 275.163 228.181 288.55C228.181 305.385 213.831 320 191.223 320C171.133 320 161.293 310.822 161.293 300.533C161.293 296.032 163.929 292.934 168.321 292.934C172.07 293.109 174.413 295.74 174.413 299.481L174.237 302.579C174.237 308.776 178.806 313.16 191.106 313.16C206.569 313.16 216.233 304.918 216.233 294.629C216.233 288.725 212.484 284.691 201.121 286.094L178.337 288.9C162.581 290.771 154.147 283.113 154.147 272.532C154.147 262.126 161.293 255.404 173.769 253.708C165.393 249.032 160.531 241.081 160.531 232.547C160.531 214.015 177.341 205.48 191.399 205.48C196.379 205.45 201.315 206.403 205.924 208.286C205.924 207.798 205.886 207.297 205.846 206.76C205.799 206.14 205.749 205.472 205.749 204.721C205.749 187.125 219.454 175.608 237.26 175.608C250.204 175.608 257.233 181.396 257.233 189.171C257.233 194.315 253.484 198.992 247.569 198.992C241.77 198.992 237.729 194.49 237.729 189.638C237.729 189.146 237.777 188.735 237.823 188.346C237.865 187.994 237.904 187.66 237.904 187.3C237.904 184.494 236.616 183.851 232.574 183.851C222.91 183.851 213.539 191.626 213.539 205.305C213.357 208.625 214.001 211.939 215.413 214.951C219.513 219.335 221.68 224.772 221.68 230.676C221.68 249.207 204.987 257.742 190.813 257.742H190.52C171.016 257.742 165.393 261.776 165.393 266.92C165.393 271.304 168.087 274.11 176.639 273ZM204.226 231.904C204.226 219.277 198.31 211.034 190.989 211.034C183.023 211.034 178.044 220.563 178.044 231.261C178.044 243.887 183.96 252.13 191.457 252.13C199.247 252.13 204.226 242.777 204.226 231.904Z" fill="white"/>
</g>
<defs>
<clipPath id="clip0">
<rect width="410" height="160" fill="white" transform="translate(38 160)"/>
</clipPath>
</defs>
</svg>
