<svg width="480" height="480" viewBox="0 0 480 480" fill="none" xmlns="http://www.w3.org/2000/svg">
<rect width="480" height="480" fill="#F3F3F3"/>
<path fill-rule="evenodd" clip-rule="evenodd" d="M218.026 96.5142C210.218 100.433 199.67 111.867 198.234 165.657C198.166 168.216 198.125 170.796 198.09 173.39C189.939 141.002 182.77 124.373 172.627 121.015C170.017 120.153 164.867 119.431 159.614 124.268C145.144 137.595 146.429 171.813 152.616 215.256C145.096 201.298 136.609 190.054 128.08 187.796C123.506 186.583 119.111 187.74 115.705 191.049C110.664 195.963 108.034 206.991 108 221.621V222.259C108.027 231.534 109.078 242.218 111.2 253.694C115.966 279.464 128.059 319.332 158.556 362.887L162.841 369L174.817 360.258L170.532 354.138C141.972 313.359 130.497 276.162 125.896 252.13C120.814 225.54 122.915 207.657 125.326 202.798C127.709 204.341 133.161 209.886 140.791 224.46C148.702 239.589 156.901 260.515 163.851 283.361L178.134 279.863C177.31 274.928 176.452 269.958 175.6 264.973C170.58 235.642 165.389 205.308 163.631 180.975C161.502 151.539 165.135 140.259 168.843 136.081C170.69 138.163 175.078 145.075 181.286 167.424C186.512 186.205 191.367 209.465 196.064 231.968C198.64 244.314 201.077 255.979 203.453 266.347L217.943 263.788C216.103 247.216 211.928 204.53 212.951 166.057C213.912 130.038 219.337 113.753 223.979 110.346C225.524 111.972 229.892 118.611 234.761 144.479C238.572 164.725 241.511 189.752 244.347 213.959C246.133 229.206 247.822 243.606 249.628 255.846L264.269 254.717C264.269 224.769 264.502 193.292 267.297 166.569C271.225 129.105 278.566 119.866 282.103 117.601C283.092 119.13 285.104 123.546 287.013 135.583C288.847 147.066 290.138 162.243 291.497 178.304C293.832 205.827 296.476 237.016 302.773 263.284C310.457 295.37 322.31 311.634 337.974 311.634H338.057C365.752 311.543 388.482 258.117 396.297 224.474L398 217.156L383.675 213.692L381.972 220.997C377.556 239.995 370.092 259.288 361.487 273.911C353.144 288.093 344.361 296.583 338.002 296.604H337.981C330.427 296.604 322.612 282.815 317.071 259.708C311.048 234.576 308.459 203.99 306.172 177.014C302.361 132.141 300.04 110.29 288.867 103.847C285.035 101.632 280.53 101.597 276.197 103.77C263.246 110.241 256.344 130.725 252.842 163.849C247.355 126 241.326 102.69 230.455 96.6615C228.45 95.5538 226.321 95 224.158 95C222.105 95 220.031 95.5047 218.026 96.5142Z" fill="url(#paint0_linear)"/>
<defs>
<linearGradient id="paint0_linear" x1="253" y1="109.799" x2="152.142" y2="358.354" gradientUnits="userSpaceOnUse">
<stop stop-color="#00C989"/>
<stop offset="1" stop-color="#5D41D8"/>
</linearGradient>
</defs>
</svg>
