<svg width="140" height="80" viewBox="0 0 140 80" fill="none" xmlns="http://www.w3.org/2000/svg">
<path d="M42.2084 48.32C41.5358 48.4067 40.8315 48.4511 40.0981 48.4511C39.3481 48.4511 38.6728 48.4041 38.0582 48.3271L39.0742 45.3422C39.4308 45.3718 39.7727 45.3848 40.0981 45.3848C40.4539 45.3848 40.7997 45.3704 41.135 45.3424L39.8123 41.6732L37.4584 48.2398L37.457 48.2396L31.4453 65H29.5533L21.6488 39.4536C21.0602 37.4853 20.3454 36.6058 19 36.0195L19.042 35.6845H25.3909L25.4329 36.0195C24.3818 36.5639 24.1295 37.3178 24.8022 39.5374L30.6465 59.1788L34.7599 47.5699L34.6195 47.5268C33.7074 47.2463 32.9419 47.0109 32.1686 47.0109C31.6556 47.0109 31.0958 47.1038 30.5828 47.429L30.3029 47.3361L28.4838 39.8096L28.8569 39.6702C31.2425 42.3667 33.6434 43.8512 35.803 44.6262L38.9714 35.6845H40.8634L44.0291 44.6638C46.3171 43.6994 47.6544 41.835 47.6544 39.4844C47.6544 35.7211 44.3427 34.2344 40.9843 33.3517L37.5327 32.4225C33.5213 31.3074 29.2767 29.1703 29.2767 23.7345C29.2767 18.438 33.3347 15 39.4917 15C41.7716 15 43.3908 15.5158 44.6256 15.9091C45.3865 16.1515 46.0014 16.3473 46.5349 16.3473C46.9081 16.3473 47.1879 16.2544 47.5144 15.9757L47.7943 16.0221L49.1936 22.8517L48.8205 22.9911C46.395 19.7854 43.0366 18.0199 39.3518 18.0199C35.3404 18.0199 32.5418 20.1106 32.5418 23.5022C32.5418 27.126 35.7136 28.1946 39.2585 29.2167L42.7101 30.1924C47.3279 31.5397 50.9661 33.8627 50.9661 39.1591C50.9661 43.2354 48.7709 46.2544 45.0743 47.6286C44.2027 47.9517 43.2374 48.1873 42.2084 48.32Z" fill="#353943"/>
<path d="M42.3967 48.8422L48.2213 65H50.1134L58.0178 39.4536C58.6065 37.4853 59.3212 36.6058 60.6667 36.0195L60.6246 35.6845H54.402L54.3599 36.0195C55.369 36.5639 55.6213 37.3178 54.9485 39.5374L49.1463 59.1788L45.2527 48.1346C44.4262 48.4806 43.4371 48.7112 42.3967 48.8422Z" fill="#353943"/>
<path fill-rule="evenodd" clip-rule="evenodd" d="M101.556 42.7668C101.818 42.9174 102.082 43.071 102.348 43.2278C104.153 44.2918 105.245 46.1263 106.251 47.8152C107.143 49.314 107.968 50.6982 109.161 51.3277C111.398 52.5073 112.912 52.2436 114.914 49.3864C117.118 46.2402 112.976 45.7046 111.908 48.7839C111.707 44.7005 114.379 43.6295 116.383 45.0352C116.368 44.9542 116.356 44.8728 116.346 44.7911C116.272 44.4473 116.158 44.1796 116.044 43.9142C115.773 43.2809 115.508 42.6604 115.811 41.0497C116.282 41.3668 116.63 41.8938 116.844 42.2977C117.232 41.6747 117.833 41.1993 118.654 41.0188C121.393 40.4163 123.53 42.9601 122.929 45.7716C121.146 42.8617 119.402 43.3389 118.823 45.0655C119.183 44.8417 119.648 44.6172 120.122 44.5646C119.664 46.0756 119.163 46.5273 118.651 46.9481C118.652 46.9576 118.653 46.967 118.654 46.9765C119.656 46.3071 122.195 48.717 120.124 51.0599C119.656 48.4492 117.608 49.5286 116.049 51.0599C115.93 51.1769 115.812 51.2886 115.695 51.3954C116.007 51.4334 116.558 51.5982 116.844 51.7432C115.476 52.8951 114.534 52.8926 113.779 52.9821C113.564 53.0076 113.346 53.0335 113.109 53.0845C111.127 53.8623 109.572 53.2716 108.56 52.7334C106.277 51.5193 105.326 50.1748 104.348 48.7909C103.924 48.191 103.494 47.5838 102.949 46.9765C102.778 46.7863 102.589 46.6339 102.382 46.5133C102.306 46.7635 102.215 47.0231 102.122 47.2895C101.747 48.3653 101.333 49.553 101.662 50.6902C101.908 51.8673 102.446 52.6509 102.803 53.1713C103.081 53.5765 103.25 53.8221 103.086 53.9695C102.375 54.6082 98.0718 59.3345 95.7618 64.27C95.7468 64.3022 95.7257 64.3302 95.6997 64.3541C96.3166 64.4817 97.3392 64.5523 97.8245 64.455C98.26 64.3676 98.5139 64.5413 98.6198 64.8041C98.8569 64.9019 99.1269 65.078 99.3243 65.3395C99.5197 65.5982 99.433 65.5953 99.2023 65.5876C99.0359 65.5821 98.7947 65.574 98.5302 65.6596C98.3741 65.896 98.0952 66.0182 97.6955 65.8284C97.1619 65.5749 95.5169 65.1034 95.1581 65.2428C95.0628 65.2798 94.9689 65.3007 94.8837 65.2995C94.8109 65.3391 94.7216 65.3647 94.6238 65.3777C94.2424 65.4286 93.0269 66.6354 92.6809 67.1149C92.4218 67.474 92.1186 67.5015 91.8683 67.3696C91.5953 67.4221 91.3877 67.5456 91.2445 67.6307C91.046 67.7487 90.9714 67.7931 91.0184 67.4721C91.0659 67.1476 91.218 66.8631 91.3788 66.663C91.3454 66.3815 91.4845 66.1067 91.9082 65.9733C92.3758 65.826 93.2262 65.2801 93.7082 64.8719C93.0706 64.8182 91.965 64.9177 91.5251 65.0247C91.0953 65.1293 90.847 64.9529 90.742 64.6897C90.5004 64.552 90.2625 64.5108 90.0985 64.4824C89.871 64.443 89.7856 64.4282 90.0293 64.2146C90.2756 63.9987 90.5757 63.8813 90.8276 63.8337C90.9846 63.598 91.2684 63.4795 91.6771 63.6537C92.0693 63.8208 92.8765 63.9471 93.4954 63.9793C93.025 63.5972 92.4242 63.1949 92.1156 63.0427C91.7188 62.8469 91.641 62.552 91.7287 62.2825C91.6312 62.0217 91.475 61.8373 91.3672 61.7102C91.2178 61.5339 91.1617 61.4676 91.4853 61.4602C91.8124 61.4527 92.1179 61.5551 92.3417 61.6804C92.613 61.6003 92.9066 61.6915 93.109 62.0878C93.3439 62.5475 94.0831 63.3512 94.5672 63.7413C94.8678 63.1797 95.2316 62.3094 95.6303 61.3557C96.3615 59.6064 97.21 57.5766 98.0006 56.657C96.5401 55.5487 94.1223 53.6926 93.5477 50.1125C93.1375 51.6847 92.876 53.3689 92.9908 54.8306L93.004 54.9221C93.0254 55.0321 93.0673 55.1642 93.1075 55.2912C93.1942 55.5648 93.2734 55.815 93.1261 55.7711C91.4895 55.1385 88.485 54.238 86.5254 53.9717C86.859 54.3684 87.2837 54.7915 87.5679 54.9674C87.9092 55.1787 87.9699 55.4502 87.8783 55.6891C87.9747 55.9001 88.0447 56.1831 88.0142 56.4778C87.9842 56.7692 87.9287 56.7138 87.7811 56.5662C87.6747 56.4598 87.5204 56.3055 87.2931 56.1987C87.0446 56.2583 86.7853 56.1667 86.6382 55.7947C86.4417 55.2978 85.6455 53.9705 85.3229 53.841C85.2768 53.8225 85.2339 53.8012 85.1954 53.7771C85.1302 53.7825 85.0586 53.776 84.9847 53.76C84.645 53.6864 83.2439 54.3398 82.8036 54.6414C82.4739 54.8672 82.2079 54.7977 82.0353 54.609C81.7873 54.57 81.5732 54.6113 81.4256 54.6398C81.2209 54.6793 81.144 54.6942 81.2818 54.4358C81.4211 54.1746 81.6371 53.9793 81.8348 53.8585C81.8923 53.609 82.0943 53.4181 82.4951 53.4345C82.9165 53.4516 83.7432 53.2678 84.2824 53.0781C83.9131 52.8135 82.5991 52.4841 82.1085 52.4419C81.7106 52.4077 81.5485 52.1852 81.534 51.9296C81.3666 51.7421 81.1748 51.6384 81.0425 51.5668C80.859 51.4676 80.7901 51.4303 81.0599 51.3176C81.3328 51.2037 81.6233 51.1895 81.8527 51.2213C82.0547 51.0647 82.3317 51.0449 82.6317 51.3117C83.0155 51.6531 84.0521 52.1446 84.5526 52.2668C84.2765 51.7605 83.8374 51.1336 83.6027 50.8812C83.3305 50.5883 83.3592 50.3143 83.5196 50.115C83.5209 49.8635 83.448 49.6576 83.3978 49.5156C83.3281 49.3186 83.3019 49.2447 83.5775 49.3425C83.8561 49.4414 84.0812 49.6262 84.23 49.8039C84.4847 49.8235 84.7033 49.995 84.7473 50.3946C84.8125 50.9872 85.3932 52.3193 85.6576 52.5452C85.684 52.5677 85.7085 52.5911 85.7306 52.615C87.0651 52.3879 87.9066 52.4171 89.2078 52.4623L89.2111 52.4624L89.2127 52.4625L89.2135 52.4625C89.4632 52.4711 89.7298 52.4804 90.0201 52.4885C88.7884 52.036 86.6805 50.3288 87.6298 47.2943C87.8725 46.5182 88.3457 45.8199 88.9222 45.2448C88.2619 44.9634 87.593 44.6462 86.9365 44.3013C86.9389 44.4417 86.9304 44.5824 86.9076 44.7199C86.1598 44.2399 85.7411 43.8385 85.4708 43.4706L85.4453 43.455C85.474 43.6956 85.4778 43.9449 85.438 44.1844C84.3282 43.4718 83.9433 42.9326 83.6923 42.4193C81.615 42.8868 78.93 43.5843 76.7426 44.8695C76.7394 44.8714 76.7363 44.8732 76.733 44.8749C77.2588 45.1353 78.0314 45.4159 78.4474 45.4553C78.8596 45.4942 79.0398 45.7175 79.0641 45.9806C79.2496 46.1316 79.4435 46.3613 79.5499 46.6478C79.6551 46.9312 79.5785 46.9054 79.3746 46.8365C79.2275 46.7869 79.0143 46.7149 78.7553 46.7203C78.5527 46.8894 78.271 46.9235 77.965 46.6468C77.5564 46.2772 76.2139 45.4144 75.8563 45.4424C75.7613 45.4499 75.6719 45.4433 75.5961 45.4194C75.5205 45.4352 75.434 45.434 75.3432 45.4194C74.9891 45.3624 73.5812 46.1134 73.1441 46.4485C72.8167 46.6995 72.5387 46.6426 72.3505 46.4576C72.0927 46.4312 71.8744 46.4856 71.7238 46.5232C71.515 46.5752 71.4366 46.5948 71.5644 46.3209C71.6935 46.0439 71.9054 45.8307 72.1025 45.6953C72.148 45.435 72.3456 45.2271 72.7596 45.2218C73.2164 45.2158 74.1215 44.9569 74.6611 44.722C74.1063 44.5027 73.0926 44.2947 72.6712 44.2721C72.2596 44.2499 72.0851 44.0258 72.0617 43.7626C71.8828 43.5748 71.6815 43.4741 71.5427 43.4047C71.3501 43.3084 71.2778 43.2723 71.5525 43.1471C71.8301 43.0205 72.1294 42.9962 72.367 43.0215C72.5702 42.8531 72.8553 42.8236 73.1736 43.0889C73.479 43.3434 74.1659 43.6729 74.7098 43.8679C74.392 43.4004 73.9632 42.8799 73.7284 42.6612C73.4266 42.3799 73.4359 42.0957 73.5863 41.8787C73.569 41.6196 73.4789 41.413 73.4167 41.2706C73.3304 41.073 73.298 40.9988 73.5889 41.0791C73.883 41.1602 74.1283 41.3338 74.2946 41.5057C74.5582 41.507 74.7959 41.6674 74.8707 42.0755C74.961 42.5686 75.44 43.542 75.7706 44.0006C76.6424 43.1812 79.2465 41.467 81.4398 40.064C81.0612 39.5435 80.8009 39.0231 80.6936 38.5159C80.4125 38.4629 80.0557 38.6071 79.7029 38.8322C79.9946 35.6107 78.2454 32.1924 76.0554 29.7088C75.9588 30.3036 75.9188 31.1706 76.0097 31.5977C76.098 32.0123 75.936 32.2566 75.6875 32.3608C75.5974 32.5882 75.4334 32.8479 75.1872 33.0395C74.9438 33.2289 74.9455 33.1462 74.9501 32.926C74.9534 32.7672 74.9582 32.5369 74.8736 32.2855C74.6472 32.1394 74.5278 31.8747 74.7033 31.4911C74.9377 30.9789 75.3661 29.4036 75.2293 29.063C75.2262 29.0551 75.2231 29.0473 75.2202 29.0395C75.1296 28.9891 75.0525 28.8941 74.9922 28.7761C74.8252 28.4493 73.3576 27.7404 72.818 27.5818C72.4139 27.4631 72.2928 27.1992 72.3312 26.9321C72.1973 26.7033 72.0207 26.5559 71.8989 26.4542C71.7299 26.3132 71.6665 26.2603 71.9689 26.2004C72.2746 26.1398 72.5778 26.186 72.8082 26.2669C73.0497 26.1473 73.3399 26.1849 73.5944 26.5235C73.8517 26.8659 74.5109 27.3907 75.0187 27.7098C74.7959 27.1322 74.3208 26.2921 74.0712 25.9703C73.8129 25.637 73.8688 25.352 74.0559 25.1579C74.0809 24.8939 74.0238 24.6707 73.9843 24.5169C73.9297 24.3035 73.9092 24.2234 74.1893 24.3521C74.4726 24.4822 74.6915 24.6975 74.8311 24.8982C75.0967 24.9428 75.3102 25.1435 75.3188 25.5673C75.3289 26.0613 75.6305 27.0653 75.8837 27.5995C76.0067 26.9922 76.0625 26.0499 76.0285 25.6496C75.9928 25.2292 76.1946 25.0206 76.457 24.9599C76.6214 24.752 76.6946 24.5337 76.7452 24.3831C76.8152 24.1743 76.8416 24.0959 77.0066 24.3567C77.1736 24.6204 77.2403 24.9205 77.2483 25.165C77.4469 25.3473 77.5169 25.6321 77.2939 25.9923C76.9632 26.5264 76.58 28.0101 76.6527 28.37C76.6631 28.4214 76.6692 28.4716 76.6703 28.5195C77.6918 29.2848 79.7916 31.7658 81.4784 33.7589L81.6758 33.9921C82.1656 33.1493 82.778 32.4578 83.3981 31.8572C83.2339 31.8575 83.0691 31.8436 82.9096 31.8102C83.8416 30.4768 84.4657 30.2352 85.1027 29.9886C85.3034 29.9109 85.5055 29.8327 85.7188 29.7197C86.273 29.1068 86.5622 28.5065 86.3214 27.7798C86.0015 27.3419 85.8293 26.9738 85.6753 26.6446C85.3702 25.9922 85.1365 25.4927 83.9667 24.9065C83.0521 24.4483 82.3612 24.1094 81.9181 24.0257C81.8493 24.0127 81.7811 23.9998 81.7093 23.9844C81.4209 23.9223 80.6405 23.252 80.8409 22.114C81.4674 22.8464 82.1216 22.9272 83.1261 23.1206C83.3465 23.1478 83.5774 23.1763 83.8212 23.2207C84.5343 23.3507 84.9392 23.2822 84.9392 23.2822C84.9392 23.2822 84.3398 22.2642 83.4733 21.872C83.4015 21.8395 83.3325 21.8082 83.2659 21.7779C81.9232 21.1682 81.5918 21.0176 80.2553 21.3365C80.2553 20.3993 80.8053 19.7939 81.2278 19.5822C81.8967 19.247 82.5229 19.4074 83.1496 19.5679C83.8592 19.7496 84.5696 19.9315 85.3436 19.3945C86.212 18.792 86.9201 18.7078 88.5206 19.196C88.8799 19.3056 89.2146 19.4252 89.5268 19.5542C90.1271 18.9906 90.7012 18.2194 90.7012 16.8498C91.5206 17.8 92.2655 18.8883 92.2655 20.2122C92.2655 20.2737 92.2653 20.3338 92.2649 20.3927C92.522 20.2111 92.7669 20.0669 92.9924 19.9341C93.4203 19.6822 93.7784 19.4714 94.0177 19.1238C94.3824 18.5941 94.5499 18.2957 94.6873 18.0508C94.793 17.8623 94.881 17.7055 95.0274 17.4995C95.6332 19.3269 95.7678 21.3573 94.8254 22.6432C94.4619 23.1393 94.0155 23.4605 93.5825 23.665C93.7294 23.926 93.8368 24.257 93.9119 24.6424C94.0451 25.0163 94.2146 25.2847 94.3825 25.5507C94.7502 26.1329 95.1104 26.7034 95.0662 28.3418C94.654 28.1514 94.2989 27.816 94.032 27.5028C94.0278 27.5924 94.0231 27.6825 94.0179 27.7733C94.0735 28.3922 94.2486 28.7783 94.4215 29.1597C94.7059 29.7869 94.9846 30.4015 94.7166 32.0184C94.3242 31.7666 94.0124 31.3718 93.7896 31.0177C93.8362 31.2261 93.897 31.4121 93.9575 31.597C94.1715 32.2517 94.3813 32.8932 93.938 34.4709C93.6718 34.2554 93.4615 34.3083 93.2996 34.4734C94.7273 36.2437 96.5932 34.446 97.0339 33.1661C97.2517 32.5334 97.1121 31.9392 96.9536 31.2647C96.7046 30.2051 96.4091 28.9472 97.379 27.03C97.9217 25.9571 99.449 24.6233 101.265 23.037C104.761 19.9841 109.328 15.9959 110.009 11.1321C111.32 15.0368 109.871 19.2902 108.767 20.6151C109.879 19.9905 110.771 18.5267 111.837 16.7749L111.837 16.7747C111.962 16.5709 112.088 16.3632 112.217 16.1525C112.602 18.9157 112.193 20.7699 111.432 22.1291C116.045 20.0486 120.89 17.5299 122.656 13.861C123.348 19.5066 119.504 22.5228 116.659 23.8375C118.273 23.8375 121.272 22.9095 122.656 21.1307C122.656 25.539 117.581 28.4778 114.813 28.8645C116.044 29.2512 119.811 29.5605 121.503 27.8591C120.236 31.6686 115.428 33.6594 112.814 33.4274C113.429 34.2008 114.506 34.5875 116.351 34.4328C115.275 36.985 110.661 37.3717 108.355 36.9076C108.355 37.7584 109.431 38.7637 110.584 38.6864C110.277 39.4598 108.355 40.0011 106.125 38.9958C106.048 39.6918 106.894 40.1558 108.201 40.8519C106.894 41.3932 104.664 41.5479 103.665 40.5425C103.511 41.3159 104.203 42.0119 104.741 42.3986C103.665 42.708 101.358 42.1666 100.358 41.0065C100.358 41.81 100.917 42.2961 101.556 42.7668ZM87.1238 20.7535C87.068 20.7699 87.0145 20.7857 86.963 20.7974C87.1604 20.8907 87.2931 21.0636 87.4249 21.2354C87.7094 21.6061 87.9897 21.9714 88.908 21.5191C88.0583 20.4782 87.5273 20.6346 87.1238 20.7535Z" fill="#CAA74D"/>
</svg>
