<svg width="140" height="80" viewBox="0 0 140 80" fill="none" xmlns="http://www.w3.org/2000/svg">
<path d="M42.2084 48.32C41.5358 48.4067 40.8315 48.4511 40.0981 48.4511C39.3481 48.4511 38.6728 48.4041 38.0582 48.3271L39.0742 45.3422C39.4308 45.3718 39.7727 45.3848 40.0981 45.3848C40.4539 45.3848 40.7997 45.3704 41.135 45.3424L39.8123 41.6732L37.4584 48.2398L37.457 48.2396L31.4453 65H29.5533L21.6488 39.4536C21.0602 37.4853 20.3454 36.6058 19 36.0195L19.042 35.6845H25.3909L25.4329 36.0195C24.3818 36.5639 24.1295 37.3178 24.8022 39.5374L30.6465 59.1788L34.7599 47.5699L34.6195 47.5268C33.7074 47.2463 32.9419 47.0109 32.1686 47.0109C31.6556 47.0109 31.0958 47.1038 30.5828 47.429L30.3029 47.3361L28.4838 39.8096L28.8569 39.6702C31.2425 42.3667 33.6434 43.8512 35.803 44.6262L38.9714 35.6845H40.8634L44.0291 44.6638C46.3171 43.6994 47.6544 41.835 47.6544 39.4844C47.6544 35.7211 44.3427 34.2344 40.9843 33.3517L37.5327 32.4225C33.5213 31.3074 29.2767 29.1703 29.2767 23.7345C29.2767 18.438 33.3347 15 39.4917 15C41.7716 15 43.3908 15.5158 44.6256 15.9091C45.3865 16.1515 46.0014 16.3473 46.5349 16.3473C46.9081 16.3473 47.1879 16.2544 47.5144 15.9757L47.7943 16.0221L49.1936 22.8517L48.8205 22.9911C46.395 19.7854 43.0366 18.0199 39.3518 18.0199C35.3404 18.0199 32.5418 20.1106 32.5418 23.5022C32.5418 27.126 35.7136 28.1946 39.2585 29.2167L42.7101 30.1924C47.3279 31.5397 50.9661 33.8627 50.9661 39.1591C50.9661 43.2354 48.7709 46.2544 45.0743 47.6286C44.2027 47.9517 43.2374 48.1873 42.2084 48.32Z" fill="#353943"/>
<path d="M42.3967 48.8422L48.2213 65H50.1134L58.0178 39.4536C58.6065 37.4853 59.3212 36.6058 60.6667 36.0195L60.6246 35.6845H54.402L54.3599 36.0195C55.369 36.5639 55.6213 37.3178 54.9485 39.5374L49.1463 59.1788L45.2527 48.1346C44.4262 48.4806 43.4371 48.7112 42.3967 48.8422Z" fill="#353943"/>
<path fill-rule="evenodd" clip-rule="evenodd" d="M102.93 43.1004C103.205 43.2587 103.483 43.4202 103.762 43.585C105.66 44.7035 106.808 46.6317 107.865 48.4071C108.803 49.9826 109.67 51.4376 110.924 52.0993C113.275 53.3392 114.867 53.0621 116.971 50.0587C119.288 46.7515 114.935 46.1885 113.811 49.4254C113.601 45.1331 116.409 44.0072 118.516 45.4849C118.5 45.3997 118.487 45.3141 118.477 45.2283C118.399 44.8669 118.279 44.5855 118.16 44.3065C117.875 43.6408 117.596 42.9885 117.915 41.2955C118.41 41.6288 118.775 42.1828 119.001 42.6073C119.408 41.9524 120.04 41.4527 120.903 41.2629C123.782 40.6296 126.029 43.3035 125.397 46.2589C123.523 43.2002 121.69 43.7018 121.08 45.5167C121.459 45.2815 121.947 45.0454 122.446 44.9902C121.965 46.5785 121.438 47.0533 120.9 47.4956C120.901 47.5056 120.902 47.5155 120.903 47.5255C121.956 46.8218 124.625 49.355 122.448 51.8178C121.956 49.0736 119.803 50.2082 118.165 51.8178C118.04 51.9407 117.916 52.0582 117.793 52.1704C118.12 52.2104 118.462 52.2917 118.764 52.4442C117.325 53.655 116.572 53.7443 115.779 53.8384C115.553 53.8652 115.324 53.8924 115.074 53.946C112.99 54.7636 111.356 54.1427 110.292 53.577C107.892 52.3007 106.893 50.8874 105.865 49.4327C105.419 48.8022 104.968 48.1638 104.394 47.5255C104.215 47.3255 104.016 47.1653 103.798 47.0386C103.718 47.3016 103.623 47.5745 103.526 47.8545C103.131 48.9853 102.696 50.2338 103.041 51.4291C103.3 52.6665 103.865 53.4902 104.241 54.0373C104.533 54.4631 104.71 54.7213 104.538 54.8762C103.791 55.5476 99.2677 60.5157 96.8395 65.7038C96.8237 65.7377 96.8016 65.767 96.7742 65.7921C97.4227 65.9263 98.4976 66.0005 99.0077 65.8982C99.4655 65.8063 99.7324 65.9889 99.8437 66.2652C100.093 66.368 100.377 66.5531 100.584 66.828C100.79 67.0999 100.699 67.0969 100.456 67.0888C100.281 67.0829 100.028 67.0745 99.7495 67.1645C99.5854 67.4129 99.2922 67.5414 98.8722 67.3419C98.3113 67.0755 96.582 66.5798 96.2049 66.7263C96.1047 66.7652 96.0061 66.7872 95.9164 66.786C95.8399 66.8276 95.7461 66.8544 95.6433 66.8681C95.2424 66.9216 93.9647 68.1902 93.601 68.6943C93.3286 69.0717 93.0099 69.1006 92.7468 68.962C92.4598 69.0172 92.2416 69.1469 92.0911 69.2364C91.8824 69.3605 91.804 69.4071 91.8534 69.0697C91.9034 68.7286 92.0632 68.4295 92.2322 68.2192C92.1972 67.9233 92.3434 67.6345 92.7888 67.4942C93.2803 67.3393 94.1741 66.7656 94.6809 66.3365C94.0107 66.28 92.8485 66.3847 92.386 66.4971C91.9343 66.607 91.6733 66.4216 91.5629 66.1449C91.3089 66.0002 91.0589 65.9569 90.8865 65.927C90.6473 65.8856 90.5575 65.87 90.8137 65.6456C91.0727 65.4186 91.388 65.2952 91.6529 65.2452C91.8179 64.9973 92.1162 64.8728 92.5459 65.0559C92.9581 65.2316 93.8066 65.3643 94.4572 65.3982C93.9626 64.9965 93.3311 64.5737 93.0067 64.4136C92.5897 64.2079 92.5078 63.8979 92.6 63.6146C92.4976 63.3404 92.3334 63.1466 92.2201 63.013C92.063 62.8276 92.004 62.758 92.3442 62.7502C92.6881 62.7423 93.0091 62.85 93.2444 62.9817C93.5296 62.8974 93.8382 62.9934 94.051 63.4099C94.2979 63.8931 95.0749 64.738 95.5838 65.148C95.8998 64.5577 96.2822 63.6428 96.7013 62.6403C97.4699 60.8016 98.3618 58.6679 99.1929 57.7013C97.6577 56.5362 95.1161 54.5852 94.5121 50.8219C94.0809 52.4746 93.8061 54.245 93.9267 55.7815L93.9406 55.8776C93.9631 55.9932 94.0071 56.1321 94.0494 56.2656C94.1405 56.5531 94.2238 56.8162 94.069 56.7701C92.3486 56.1051 89.1904 55.1585 87.1305 54.8785C87.4813 55.2956 87.9276 55.7403 88.2263 55.9253C88.5851 56.1473 88.649 56.4327 88.5527 56.6839C88.654 56.9057 88.7275 57.2031 88.6956 57.5128C88.6639 57.8192 88.6057 57.7609 88.4505 57.6058C88.3386 57.4939 88.1764 57.3317 87.9375 57.2195C87.6763 57.2822 87.4038 57.1859 87.2491 56.7948C87.0426 56.2725 86.2056 54.8773 85.8665 54.7412C85.8181 54.7217 85.7729 54.6993 85.7325 54.674C85.6639 54.6797 85.5887 54.6729 85.511 54.656C85.1539 54.5787 83.6812 55.2655 83.2184 55.5825C82.8718 55.8199 82.5921 55.7469 82.4107 55.5484C82.15 55.5075 81.925 55.5509 81.7699 55.5809C81.5546 55.6224 81.4738 55.638 81.6187 55.3664C81.7651 55.0918 81.9922 54.8866 82.2 54.7596C82.2604 54.4974 82.4727 54.2967 82.8941 54.3139C83.337 54.3319 84.206 54.1387 84.7727 53.9393C84.3846 53.6611 83.0033 53.3149 82.4876 53.2705C82.0694 53.2346 81.899 53.0006 81.8838 52.732C81.7078 52.5349 81.5062 52.4259 81.3671 52.3507C81.1742 52.2463 81.1018 52.2072 81.3854 52.0887C81.6722 51.969 81.9777 51.954 82.2188 51.9875C82.4311 51.8228 82.7222 51.802 83.0376 52.0825C83.4411 52.4413 84.5307 52.958 85.0569 53.0864C84.7666 52.5542 84.305 51.8952 84.0584 51.6299C83.7722 51.3221 83.8024 51.0341 83.971 50.8246C83.9723 50.5602 83.8957 50.3437 83.8429 50.1945C83.7697 49.9874 83.7422 49.9097 84.0318 50.0125C84.3247 50.1165 84.5612 50.3107 84.7177 50.4976C84.9854 50.5181 85.2152 50.6984 85.2614 51.1185C85.33 51.7414 85.9404 53.1416 86.2183 53.3791C86.2461 53.4028 86.2718 53.4273 86.2951 53.4525C87.6978 53.2137 88.5824 53.2444 89.9502 53.2919L89.9537 53.2921L89.9553 53.2921L89.9562 53.2922C90.2187 53.3012 90.4989 53.311 90.804 53.3195C89.5093 52.8439 87.2936 51.0493 88.2914 47.8596C88.5466 47.0438 89.044 46.3098 89.6499 45.7052C88.9559 45.4094 88.2528 45.076 87.5627 44.7134C87.5652 44.861 87.5562 45.0089 87.5323 45.1534C86.7462 44.6488 86.3062 44.2269 86.022 43.8402L85.9951 43.8238C86.0253 44.0768 86.0293 44.3388 85.9875 44.5905C84.8209 43.8415 84.4163 43.2747 84.1524 42.7351C81.9689 43.2266 79.1466 43.9597 76.8472 45.3107C76.8439 45.3126 76.8406 45.3145 76.8372 45.3164C77.3899 45.59 78.202 45.8851 78.6393 45.9264C79.0726 45.9674 79.2619 46.2021 79.2875 46.4786C79.4825 46.6374 79.6863 46.8788 79.7981 47.18C79.9087 47.4779 79.8282 47.4507 79.6138 47.3783C79.4593 47.3261 79.2352 47.2505 78.9629 47.2562C78.7499 47.4339 78.4538 47.4698 78.1322 47.1789C77.7027 46.7904 76.2914 45.8834 75.9156 45.9129C75.8157 45.9208 75.7218 45.9139 75.6421 45.8887C75.5626 45.9053 75.4717 45.9041 75.3763 45.8887C75.004 45.8288 73.5241 46.6182 73.0646 46.9705C72.7205 47.2343 72.4282 47.1745 72.2304 46.9801C71.9595 46.9523 71.7299 47.0095 71.5717 47.0489C71.3522 47.1037 71.2697 47.1242 71.4041 46.8363C71.5398 46.5452 71.7626 46.3211 71.9697 46.1787C72.0175 45.9052 72.2253 45.6866 72.6605 45.681C73.1407 45.6747 74.0921 45.4026 74.6592 45.1556C74.076 44.9252 73.0105 44.7065 72.5675 44.6827C72.1349 44.6594 71.9514 44.4238 71.9269 44.1472C71.7388 43.9497 71.5272 43.8439 71.3813 43.771C71.1788 43.6698 71.1028 43.6317 71.3915 43.5002C71.6834 43.3671 71.998 43.3416 72.2478 43.3681C72.4614 43.1912 72.761 43.1601 73.0956 43.439C73.4167 43.7065 74.1387 44.0529 74.7104 44.2579C74.3764 43.7664 73.9256 43.2193 73.6788 42.9893C73.3616 42.6937 73.3714 42.3949 73.5294 42.1668C73.5113 41.8945 73.4165 41.6774 73.3511 41.5276C73.2604 41.3199 73.2264 41.2419 73.5322 41.3263C73.8413 41.4116 74.0992 41.594 74.274 41.7748C74.5511 41.7762 74.801 41.9447 74.8795 42.3737C74.9745 42.8921 75.478 43.9152 75.8255 44.3973C76.7419 43.536 79.4792 41.7341 81.7847 40.2593C81.3868 39.7122 81.1132 39.1652 81.0003 38.632C80.7049 38.5763 80.3298 38.7279 79.959 38.9645C80.2656 35.5782 78.4269 31.985 76.1249 29.3744C76.0234 29.9996 75.9813 30.911 76.0769 31.3599C76.1696 31.7956 75.9993 32.0524 75.7382 32.162C75.6434 32.401 75.471 32.674 75.2123 32.8754C74.9564 33.0746 74.9582 32.9876 74.963 32.7561C74.9665 32.5892 74.9715 32.3471 74.8826 32.0829C74.6446 31.9293 74.5191 31.651 74.7036 31.2479C74.95 30.7095 75.4003 29.0535 75.2565 28.6955C75.2532 28.6872 75.25 28.679 75.247 28.6707C75.1517 28.6177 75.0706 28.5179 75.0073 28.3939C74.8318 28.0504 73.289 27.3052 72.7218 27.1385C72.2971 27.0137 72.1698 26.7363 72.2101 26.4555C72.0694 26.215 71.8837 26.0601 71.7557 25.9532C71.5781 25.805 71.5114 25.7494 71.8293 25.6864C72.1506 25.6227 72.4694 25.6713 72.7116 25.7563C72.9654 25.6306 73.2705 25.6702 73.5379 26.0261C73.8084 26.386 74.5013 26.9377 75.0352 27.273C74.8009 26.6658 74.3015 25.7828 74.0392 25.4445C73.7676 25.0942 73.8264 24.7946 74.0231 24.5906C74.0494 24.313 73.9893 24.0785 73.9479 23.9168C73.8904 23.6925 73.8688 23.6083 74.1633 23.7436C74.4611 23.8804 74.6912 24.1066 74.8379 24.3176C75.1172 24.3645 75.3415 24.5755 75.3506 25.021C75.3612 25.5402 75.6782 26.5955 75.9443 27.1571C76.0737 26.5187 76.1323 25.5283 76.0966 25.1075C76.0591 24.6655 76.2711 24.4463 76.547 24.3824C76.7198 24.1639 76.7968 23.9344 76.8499 23.7762C76.9236 23.5567 76.9512 23.4742 77.1248 23.7484C77.3002 24.0256 77.3703 24.341 77.3788 24.598C77.5875 24.7897 77.6611 25.0891 77.4267 25.4677C77.0791 26.0291 76.6763 27.5887 76.7527 27.967C76.7636 28.021 76.77 28.0739 76.7712 28.1242C77.845 28.9286 80.0522 31.5365 81.8254 33.6316L82.0329 33.8768C82.5477 32.9908 83.1914 32.2639 83.8433 31.6327C83.6707 31.6329 83.4975 31.6183 83.3297 31.5832C84.3094 30.1816 84.9654 29.9277 85.635 29.6685C85.846 29.5868 86.0584 29.5046 86.2827 29.3858C86.8653 28.7415 87.1692 28.1105 86.9161 27.3466C86.5798 26.8864 86.3988 26.4994 86.2369 26.1533C85.9162 25.4676 85.6706 24.9425 84.4409 24.3263C82.739 23.4736 82.2473 23.3807 81.7814 23.2927C81.7091 23.279 81.6374 23.2655 81.562 23.2493C81.2588 23.184 80.4385 22.4794 80.6492 21.2831C81.3077 22.0531 81.9954 22.138 82.8243 22.2404C83.056 22.269 83.2987 22.299 83.5549 22.3457C84.3046 22.4823 85.4632 22.6189 85.4632 22.6189C85.4632 22.6189 84.1001 21.3402 83.1893 20.928C83.1138 20.8938 83.0412 20.8609 82.9713 20.8291C81.5599 20.1881 81.2114 20.0298 79.8066 20.365C79.8066 19.3799 80.3848 18.7435 80.8289 18.521C81.532 18.1687 82.1902 18.3372 82.849 18.5059C83.595 18.6969 84.3417 18.8881 85.1553 18.3236C86.0681 17.6903 87.5455 17.8105 89.2278 18.3236C89.6055 18.4388 89.9574 18.5646 90.2855 18.7002C90.9166 18.1078 91.52 17.2971 91.52 15.8574C92.3813 16.8562 93.1643 18.0003 93.1643 19.3918C93.1643 19.4565 93.1641 19.5197 93.1636 19.5816C93.434 19.3907 93.6914 19.2391 93.9284 19.0996C94.3782 18.8348 94.7546 18.6132 95.0062 18.2478C95.3895 17.691 95.5656 17.3773 95.71 17.1198C95.8212 16.9217 95.9136 16.7569 96.0675 16.5404C96.7043 18.4612 96.8458 20.5956 95.8552 21.9473C95.4731 22.4687 95.0038 22.8064 94.5487 23.0214C94.7031 23.2957 94.816 23.6436 94.8949 24.0487C95.035 24.4417 95.2131 24.7239 95.3897 25.0035C95.7761 25.6155 96.1547 26.2151 96.1083 27.9374C95.6751 27.7373 95.3018 27.3847 95.0212 27.0555C95.0168 27.1496 95.0118 27.2444 95.0064 27.3398C95.0648 27.9903 95.2489 28.3962 95.4306 28.7971C95.7296 29.4564 96.0226 30.1025 95.7408 31.8021C95.3284 31.5374 95.0006 31.1224 94.7664 30.7502C94.8154 30.9692 94.8793 31.1647 94.9428 31.3591C95.1679 32.0473 95.3884 32.7216 94.9224 34.38C94.6426 34.1536 94.4215 34.2092 94.2513 34.3827C95.752 36.2436 97.7135 34.3539 98.1767 33.0085C98.4056 32.3434 98.2589 31.7188 98.0923 31.0098C97.8306 29.896 97.5199 28.5738 98.5394 26.5585C99.11 25.4307 100.715 24.0287 102.625 22.3612C106.299 19.1521 111.099 14.9599 111.816 9.84717C113.194 13.9517 111.67 18.4227 110.51 19.8153C111.679 19.1588 112.616 17.6201 113.737 15.7787L113.738 15.7785C113.868 15.5642 114.001 15.3459 114.137 15.1244C114.541 18.029 114.111 19.9781 113.312 21.4068C118.161 19.2199 123.253 16.5723 125.11 12.7157C125.837 18.6502 121.796 21.8207 118.806 23.2027C120.503 23.2027 123.655 22.2271 125.11 20.3574C125.11 24.9912 119.775 28.0804 116.866 28.4868C118.159 28.8933 122.119 29.2185 123.897 27.43C122.566 31.4343 117.512 33.5271 114.764 33.2832C115.411 34.0962 116.543 34.5026 118.482 34.34C117.351 37.0228 112.501 37.4292 110.077 36.9415C110.077 37.8357 111.208 38.8925 112.421 38.8112C112.097 39.6242 110.077 40.1933 107.733 39.1364C107.652 39.8681 108.541 40.3558 109.915 41.0875C108.541 41.6566 106.197 41.8191 105.147 40.7623C104.985 41.5753 105.712 42.3069 106.278 42.7134C105.147 43.0386 102.722 42.4695 101.671 41.2501C101.671 42.0946 102.258 42.6056 102.93 43.1004ZM87.7596 19.9608C87.7009 19.9781 87.6447 19.9947 87.5906 20.007C87.7981 20.1051 87.9375 20.2869 88.0761 20.4674C88.3751 20.8571 88.6698 21.2411 89.635 20.7656C88.7419 19.6714 88.1838 19.8359 87.7596 19.9608Z" fill="#CAA74D"/>
</svg>
