<svg width="140" height="80" viewBox="0 0 140 80" fill="none" xmlns="http://www.w3.org/2000/svg">
<path d="M42.2084 48.32C41.5358 48.4067 40.8315 48.4511 40.0981 48.4511C39.3481 48.4511 38.6728 48.4041 38.0582 48.3271L39.0742 45.3422C39.4308 45.3718 39.7727 45.3848 40.0981 45.3848C40.4539 45.3848 40.7997 45.3704 41.135 45.3424L39.8123 41.6732L37.4584 48.2398L37.457 48.2396L31.4453 65H29.5533L21.6488 39.4536C21.0602 37.4853 20.3454 36.6058 19 36.0195L19.042 35.6845H25.3909L25.4329 36.0195C24.3818 36.5639 24.1295 37.3178 24.8022 39.5374L30.6465 59.1788L34.7599 47.5699L34.6195 47.5268C33.7074 47.2463 32.9419 47.0109 32.1686 47.0109C31.6556 47.0109 31.0958 47.1038 30.5828 47.429L30.3029 47.3361L28.4838 39.8096L28.8569 39.6702C31.2425 42.3667 33.6434 43.8512 35.803 44.6262L38.9714 35.6845H40.8634L44.0291 44.6638C46.3171 43.6994 47.6544 41.835 47.6544 39.4844C47.6544 35.7211 44.3427 34.2344 40.9843 33.3517L37.5327 32.4225C33.5213 31.3074 29.2767 29.1703 29.2767 23.7345C29.2767 18.438 33.3347 15 39.4917 15C41.7716 15 43.3908 15.5158 44.6256 15.9091C45.3865 16.1515 46.0014 16.3473 46.5349 16.3473C46.9081 16.3473 47.1879 16.2544 47.5144 15.9757L47.7943 16.0221L49.1936 22.8517L48.8205 22.9911C46.395 19.7854 43.0366 18.0199 39.3518 18.0199C35.3404 18.0199 32.5418 20.1106 32.5418 23.5022C32.5418 27.126 35.7136 28.1946 39.2585 29.2167L42.7101 30.1924C47.3279 31.5397 50.9661 33.8627 50.9661 39.1591C50.9661 43.2354 48.7709 46.2544 45.0743 47.6286C44.2027 47.9517 43.2374 48.1873 42.2084 48.32Z" fill="#353943"/>
<path d="M42.3967 48.8422L48.2213 65H50.1134L58.0178 39.4536C58.6065 37.4853 59.3212 36.6058 60.6667 36.0195L60.6246 35.6845H54.402L54.3599 36.0195C55.369 36.5639 55.6213 37.3178 54.9485 39.5374L49.1463 59.1788L45.2527 48.1346C44.4262 48.4806 43.4371 48.7112 42.3967 48.8422Z" fill="#353943"/>
<path fill-rule="evenodd" clip-rule="evenodd" d="M104.528 43.6464C104.82 43.8146 105.114 43.986 105.411 44.161C107.426 45.3488 108.646 47.3965 109.768 49.2818C110.765 50.9549 111.685 52.5001 113.017 53.2028C115.513 54.5195 117.204 54.2252 119.438 51.0357C121.899 47.5237 117.276 46.9259 116.083 50.3632C115.859 45.805 118.842 44.6094 121.079 46.1786C121.062 46.0882 121.048 45.9973 121.037 45.9061C120.955 45.5223 120.827 45.2235 120.7 44.9272C120.398 44.2203 120.102 43.5276 120.44 41.7297C120.966 42.0837 121.354 42.6719 121.594 43.1228C122.026 42.4273 122.698 41.8967 123.614 41.6951C126.671 41.0226 129.057 43.8622 128.386 47.0006C126.396 43.7524 124.449 44.285 123.802 46.2124C124.204 45.9626 124.723 45.712 125.252 45.6532C124.741 47.3399 124.182 47.8442 123.61 48.3139C123.612 48.3245 123.613 48.3351 123.614 48.3456C124.732 47.5984 127.566 50.2885 125.254 52.9039C124.732 49.9896 122.446 51.1945 120.706 52.9039C120.573 53.0344 120.441 53.1591 120.311 53.2783C120.658 53.3207 121.022 53.4071 121.342 53.569C119.814 54.8548 119.015 54.9496 118.172 55.0496C117.932 55.0781 117.689 55.1069 117.424 55.1638C115.211 56.0321 113.476 55.3727 112.346 54.772C109.797 53.4166 108.736 51.9158 107.644 50.371C107.17 49.7014 106.691 49.0235 106.082 48.3456C105.892 48.1333 105.68 47.9632 105.45 47.8286C105.364 48.1079 105.263 48.3976 105.16 48.695C104.741 49.8959 104.279 51.2218 104.645 52.4911C104.92 53.8051 105.52 54.6799 105.919 55.2608C106.23 55.713 106.418 55.9872 106.235 56.1517C105.442 56.8647 100.638 62.1405 98.0596 67.65C98.0428 67.686 98.0192 67.7172 97.9902 67.7438C98.6789 67.8863 99.8203 67.9651 100.362 67.8564C100.848 67.7589 101.132 67.9528 101.25 68.2462C101.515 68.3554 101.816 68.552 102.036 68.8439C102.254 69.1327 102.158 69.1294 101.9 69.1208C101.714 69.1146 101.445 69.1056 101.15 69.2012C100.976 69.465 100.664 69.6014 100.218 69.3896C99.6225 69.1067 97.7861 68.5803 97.3857 68.7359C97.2792 68.7772 97.1745 68.8005 97.0793 68.7992C96.998 68.8434 96.8984 68.8719 96.7892 68.8865C96.3635 68.9433 95.0066 70.2904 94.6204 70.8257C94.3311 71.2266 93.9927 71.2572 93.7133 71.11C93.4086 71.1686 93.1768 71.3064 93.017 71.4014C92.7954 71.5332 92.7122 71.5827 92.7646 71.2244C92.8176 70.8622 92.9874 70.5446 93.1669 70.3212C93.1296 70.007 93.2849 69.7003 93.7579 69.5513C94.2799 69.3869 95.2291 68.7776 95.7672 68.3219C95.0555 68.2619 93.8213 68.3731 93.3302 68.4925C92.8505 68.6092 92.5733 68.4123 92.4561 68.1185C92.1864 67.9648 91.9208 67.9188 91.7378 67.887C91.4838 67.8431 91.3884 67.8265 91.6605 67.5882C91.9355 67.3472 92.2704 67.2161 92.5516 67.163C92.7269 66.8998 93.0436 66.7676 93.4999 66.962C93.9377 67.1486 94.8388 67.2895 95.5296 67.3255C95.0045 66.8989 94.3338 66.4499 93.9893 66.28C93.5465 66.0615 93.4595 65.7323 93.5575 65.4314C93.4487 65.1403 93.2743 64.9345 93.154 64.7925C92.9871 64.5957 92.9245 64.5218 93.2857 64.5135C93.651 64.505 93.9919 64.6195 94.2418 64.7593C94.5446 64.6698 94.8723 64.7717 95.0983 65.214C95.3604 65.7272 96.1856 66.6244 96.7261 67.0598C97.0616 66.4329 97.4677 65.4614 97.9128 64.3968C98.729 62.4441 99.6762 60.1783 100.559 59.1518C98.9284 57.9146 96.2294 55.8426 95.588 51.8463C95.1301 53.6013 94.8382 55.4814 94.9663 57.113L94.981 57.2152C95.005 57.3379 95.0517 57.4853 95.0966 57.6272C95.1933 57.9325 95.2818 58.2118 95.1174 58.1629C93.2905 57.4567 89.9365 56.4514 87.7491 56.1542C88.1216 56.5971 88.5956 57.0694 88.9128 57.2657C89.2938 57.5016 89.3616 57.8046 89.2594 58.0714C89.3669 58.3069 89.4451 58.6228 89.4111 58.9517C89.3775 59.277 89.3156 59.2151 89.1509 59.0504C89.0321 58.9316 88.8598 58.7593 88.6061 58.6401C88.3288 58.7067 88.0393 58.6045 87.8751 58.1891C87.6557 57.6345 86.7669 56.1529 86.4068 56.0083C86.3553 55.9877 86.3074 55.9639 86.2645 55.937C86.1917 55.943 86.1118 55.9358 86.0292 55.9179C85.6501 55.8357 84.0861 56.5651 83.5946 56.9018C83.2265 57.1539 82.9296 57.0763 82.737 56.8656C82.4601 56.8221 82.2212 56.8682 82.0564 56.9C81.8278 56.9441 81.742 56.9607 81.8958 56.6723C82.0513 56.3807 82.2925 56.1627 82.5132 56.0278C82.5773 55.7494 82.8028 55.5363 83.2502 55.5545C83.7206 55.5737 84.6434 55.3685 85.2453 55.1567C84.8331 54.8613 83.3663 54.4937 82.8186 54.4466C82.3744 54.4084 82.1935 54.1599 82.1774 53.8746C81.9905 53.6654 81.7763 53.5496 81.6287 53.4697C81.4238 53.3589 81.3469 53.3173 81.6482 53.1915C81.9527 53.0644 82.2771 53.0485 82.5331 53.084C82.7586 52.9091 83.0677 52.8871 83.4027 53.185C83.8311 53.566 84.9882 54.1147 85.547 54.251C85.2387 53.6859 84.7485 52.9861 84.4866 52.7043C84.1828 52.3774 84.2148 52.0715 84.3938 51.8491C84.3953 51.5683 84.3139 51.3384 84.2579 51.1799C84.1801 50.9601 84.1509 50.8775 84.4585 50.9867C84.7695 51.0971 85.0207 51.3034 85.1868 51.5018C85.4711 51.5237 85.7152 51.7151 85.7642 52.1612C85.837 52.8227 86.4852 54.3096 86.7804 54.5618C86.8099 54.587 86.8372 54.613 86.862 54.6398C88.3516 54.3862 89.2909 54.4188 90.7435 54.4693L90.7472 54.4694L90.7489 54.4695L90.7499 54.4695C91.0286 54.4792 91.3262 54.4895 91.6502 54.4986C90.2752 53.9934 87.9223 52.0877 88.9819 48.7004C89.2529 47.8341 89.7811 47.0546 90.4246 46.4126C89.6875 46.0984 88.9409 45.7444 88.208 45.3593C88.2107 45.5161 88.2012 45.6732 88.1757 45.8266C87.341 45.2908 86.8737 44.8427 86.5719 44.4321L86.5434 44.4147C86.5755 44.6833 86.5797 44.9615 86.5353 45.2288C85.2964 44.4334 84.8668 43.8315 84.5866 43.2585C82.2678 43.7804 79.2706 44.5589 76.8288 45.9936C76.8253 45.9957 76.8217 45.9977 76.8181 45.9997C77.4051 46.2903 78.2675 46.6036 78.7319 46.6475C79.192 46.691 79.3931 46.9402 79.4202 47.2339C79.6273 47.4025 79.8438 47.6589 79.9625 47.9787C80.0799 48.2951 79.9945 48.2662 79.7668 48.1893C79.6027 48.1339 79.3647 48.0536 79.0755 48.0596C78.8494 48.2484 78.5349 48.2865 78.1934 47.9776C77.7372 47.565 76.2386 46.6018 75.8395 46.6332C75.7334 46.6415 75.6336 46.6342 75.549 46.6075C75.4646 46.6251 75.368 46.6238 75.2667 46.6075C74.8714 46.5438 73.2998 47.3821 72.8118 47.7563C72.4464 48.0365 72.1361 47.9729 71.9259 47.7664C71.6382 47.7369 71.3945 47.7977 71.2265 47.8396C70.9933 47.8977 70.9058 47.9195 71.0484 47.6137C71.1926 47.3046 71.4292 47.0666 71.6491 46.9154C71.6999 46.6249 71.9205 46.3928 72.3827 46.3868C72.8926 46.3802 73.903 46.0912 74.5052 45.8289C73.8859 45.5842 72.7544 45.352 72.284 45.3267C71.8245 45.302 71.6297 45.0518 71.6036 44.758C71.404 44.5484 71.1792 44.436 71.0242 44.3585C70.8093 44.251 70.7286 44.2107 71.0352 44.0709C71.3451 43.9297 71.6792 43.9026 71.9444 43.9307C72.1713 43.7428 72.4895 43.7098 72.8448 44.006C73.1857 44.2901 73.9525 44.6579 74.5596 44.8756C74.2049 44.3537 73.7262 43.7727 73.4641 43.5285C73.1272 43.2145 73.1376 42.8973 73.3055 42.655C73.2862 42.3658 73.1856 42.1352 73.1161 41.9762C73.0198 41.7557 72.9837 41.6728 73.3084 41.7624C73.6367 41.853 73.9105 42.0467 74.0962 42.2387C74.3905 42.2401 74.6558 42.4191 74.7392 42.8747C74.8401 43.4252 75.3748 44.5117 75.7438 45.0237C76.7169 44.109 79.6239 42.1955 82.0722 40.6293C81.6496 40.0483 81.359 39.4674 81.2392 38.9013C80.9255 38.8421 80.5271 39.003 80.1334 39.2543C80.4589 35.6582 78.5063 31.8425 76.0617 29.0701C75.9539 29.7341 75.9093 30.7019 76.0107 31.1786C76.1092 31.6414 75.9284 31.9141 75.651 32.0304C75.5505 32.2842 75.3673 32.5742 75.0926 32.788C74.8209 32.9995 74.8228 32.9072 74.8279 32.6613C74.8315 32.484 74.8369 32.227 74.7425 31.9464C74.4898 31.7833 74.3565 31.4878 74.5524 31.0596C74.8141 30.4879 75.2922 28.7294 75.1396 28.3491C75.1361 28.3404 75.1327 28.3316 75.1294 28.3229C75.0282 28.2666 74.9421 28.1606 74.8749 28.0289C74.6885 27.6641 73.0502 26.8727 72.4478 26.6958C71.9968 26.5632 71.8616 26.2686 71.9045 25.9704C71.755 25.715 71.5578 25.5505 71.4219 25.437C71.2333 25.2797 71.1625 25.2206 71.5 25.1537C71.8413 25.086 72.1798 25.1376 72.4369 25.2279C72.7065 25.0944 73.0305 25.1364 73.3145 25.5144C73.6017 25.8966 74.3376 26.4825 74.9045 26.8386C74.6557 26.1938 74.1254 25.2561 73.8468 24.8968C73.5584 24.5248 73.6209 24.2067 73.8297 23.99C73.8576 23.6952 73.7938 23.4462 73.7498 23.2744C73.6888 23.0362 73.6659 22.9468 73.9787 23.0905C74.2949 23.2358 74.5393 23.4761 74.6951 23.7001C74.9916 23.7499 75.2299 23.974 75.2395 24.447C75.2507 24.9985 75.5874 26.1191 75.87 26.7155C76.0074 26.0375 76.0696 24.9857 76.0317 24.5389C75.9918 24.0695 76.217 23.8367 76.51 23.7689C76.6935 23.5369 76.7753 23.2932 76.8317 23.1251C76.9099 22.892 76.9393 22.8045 77.1236 23.0956C77.3099 23.39 77.3843 23.7249 77.3933 23.9979C77.615 24.2014 77.6931 24.5194 77.4442 24.9214C77.0751 25.5176 76.6473 27.1738 76.7285 27.5755C76.74 27.6329 76.7468 27.689 76.7481 27.7425C77.8884 28.5967 80.2323 31.3662 82.1153 33.5911L82.3357 33.8514C82.8824 32.9106 83.566 32.1387 84.2582 31.4683C84.075 31.4686 83.891 31.4531 83.7129 31.4157C84.7532 29.9273 85.4499 29.6577 86.161 29.3824C86.3851 29.2957 86.6106 29.2084 86.8488 29.0822C87.4674 28.398 87.7902 27.7279 87.5214 26.9167C87.1643 26.428 86.9721 26.017 86.8002 25.6495C86.4596 24.9213 86.1987 24.3637 84.8929 23.7093C83.0856 22.8038 82.5634 22.7051 82.0687 22.6117C81.9919 22.5972 81.9158 22.5828 81.8356 22.5656C81.5137 22.4963 80.6426 21.748 80.8663 20.4777C81.5656 21.2953 82.2958 21.3855 83.1761 21.4942C83.4222 21.5246 83.6799 21.5564 83.952 21.606C84.7481 21.7511 85.9785 21.8961 85.9785 21.8961C85.9785 21.8961 84.531 20.5382 83.5637 20.1005C83.4836 20.0642 83.4065 20.0292 83.3322 19.9954C81.8334 19.3147 81.4634 19.1467 79.9715 19.5027C79.9715 18.4565 80.5855 17.7807 81.0571 17.5444C81.8038 17.1702 82.5028 17.3492 83.2024 17.5284C83.9945 17.7312 84.7875 17.9343 85.6515 17.3348C86.6209 16.6623 88.1898 16.7899 89.9763 17.3348C90.3774 17.4572 90.7511 17.5907 91.0996 17.7347C91.7697 17.1056 92.4105 16.2447 92.4105 14.7158C93.3252 15.7765 94.1567 16.9914 94.1567 18.4691C94.1567 18.5378 94.1565 18.605 94.156 18.6707C94.443 18.4679 94.7164 18.307 94.9681 18.1588C95.4458 17.8776 95.8455 17.6423 96.1126 17.2543C96.5197 16.663 96.7067 16.3298 96.8601 16.0564C96.9781 15.846 97.0763 15.6711 97.2397 15.4411C97.916 17.4809 98.0662 19.7475 97.0143 21.1829C96.6085 21.7366 96.1102 22.0952 95.6268 22.3235C95.7908 22.6149 95.9107 22.9843 95.9945 23.4146C96.1432 23.8319 96.3324 24.1316 96.5199 24.4285C96.9303 25.0784 97.3323 25.7152 97.2831 27.5441C96.823 27.3316 96.4266 26.9572 96.1286 26.6076C96.1239 26.7075 96.1187 26.8082 96.1129 26.9095C96.1749 27.6003 96.3704 28.0313 96.5634 28.4571C96.8809 29.1573 97.192 29.8433 96.8928 31.6482C96.4548 31.3672 96.1067 30.9264 95.8581 30.5311C95.91 30.7638 95.9779 30.9714 96.0454 31.1778C96.2844 31.9086 96.5185 32.6247 96.0237 34.3858C95.7265 34.1454 95.4918 34.2044 95.311 34.3887C96.9047 36.3649 98.9877 34.3581 99.4795 32.9293C99.7227 32.2231 99.5669 31.5598 99.3899 30.8068C99.112 29.6241 98.7821 28.2199 99.8648 26.0798C100.471 24.8821 102.175 23.3932 104.203 21.6225C108.105 18.2146 113.203 13.7627 113.963 8.33325C115.427 12.6921 113.809 17.44 112.577 18.9189C113.819 18.2217 114.814 16.5877 116.004 14.6322L116.004 14.632C116.143 14.4045 116.284 14.1726 116.429 13.9374C116.858 17.0219 116.401 19.0918 115.552 20.6089C120.702 18.2866 126.109 15.475 128.081 11.3795C128.853 17.6816 124.562 21.0485 121.386 22.5161C123.189 22.5161 126.536 21.4801 128.081 19.4945C128.081 24.4154 122.416 27.6959 119.326 28.1276C120.7 28.5592 124.905 28.9046 126.794 27.0053C125.38 31.2577 120.013 33.4801 117.095 33.2211C117.781 34.0844 118.983 34.516 121.043 34.3434C119.841 37.1923 114.692 37.6239 112.117 37.106C112.117 38.0556 113.318 39.1779 114.606 39.0916C114.263 39.9549 112.117 40.5592 109.628 39.4369C109.542 40.2139 110.486 40.7318 111.945 41.5088C110.486 42.1131 107.997 42.2858 106.881 41.1635C106.71 42.0268 107.482 42.8038 108.083 43.2354C106.881 43.5807 104.306 42.9764 103.191 41.6815C103.191 42.5783 103.814 43.121 104.528 43.6464ZM88.4172 19.0734C88.3548 19.0918 88.2951 19.1094 88.2377 19.1225C88.458 19.2266 88.6061 19.4196 88.7532 19.6114C89.0708 20.0252 89.3837 20.433 90.4088 19.928C89.4603 18.7661 88.8676 18.9407 88.4172 19.0734Z" fill="#CAA74D"/>
</svg>
