<svg width="140" height="80" viewBox="0 0 140 80" fill="none" xmlns="http://www.w3.org/2000/svg">
<path d="M42.2084 48.32C41.5358 48.4067 40.8315 48.4511 40.0981 48.4511C39.3481 48.4511 38.6728 48.4041 38.0582 48.3271L39.0742 45.3422C39.4308 45.3718 39.7727 45.3848 40.0981 45.3848C40.4539 45.3848 40.7997 45.3704 41.135 45.3424L39.8123 41.6732L37.4584 48.2398L37.457 48.2396L31.4453 65H29.5533L21.6488 39.4536C21.0602 37.4853 20.3454 36.6058 19 36.0195L19.042 35.6845H25.3909L25.4329 36.0195C24.3818 36.5639 24.1295 37.3178 24.8022 39.5374L30.6465 59.1788L34.7599 47.5699L34.6195 47.5268C33.7074 47.2463 32.9419 47.0109 32.1686 47.0109C31.6556 47.0109 31.0958 47.1038 30.5828 47.429L30.3029 47.3361L28.4838 39.8096L28.8569 39.6702C31.2425 42.3667 33.6434 43.8512 35.803 44.6262L38.9714 35.6845H40.8634L44.0291 44.6638C46.3171 43.6994 47.6544 41.835 47.6544 39.4844C47.6544 35.7211 44.3427 34.2344 40.9843 33.3517L37.5327 32.4225C33.5213 31.3074 29.2767 29.1703 29.2767 23.7345C29.2767 18.438 33.3347 15 39.4917 15C41.7716 15 43.3908 15.5158 44.6256 15.9091C45.3865 16.1515 46.0014 16.3473 46.5349 16.3473C46.9081 16.3473 47.1879 16.2544 47.5144 15.9757L47.7943 16.0221L49.1936 22.8517L48.8205 22.9911C46.395 19.7854 43.0366 18.0199 39.3518 18.0199C35.3404 18.0199 32.5418 20.1106 32.5418 23.5022C32.5418 27.126 35.7136 28.1946 39.2585 29.2167L42.7101 30.1924C47.3279 31.5397 50.9661 33.8627 50.9661 39.1591C50.9661 43.2354 48.7709 46.2544 45.0743 47.6286C44.2027 47.9517 43.2374 48.1873 42.2084 48.32Z" fill="#353943"/>
<path d="M42.3967 48.8422L48.2213 65H50.1134L58.0178 39.4536C58.6065 37.4853 59.3212 36.6058 60.6667 36.0195L60.6246 35.6845H54.402L54.3599 36.0195C55.369 36.5639 55.6213 37.3178 54.9485 39.5374L49.1463 59.1788L45.2527 48.1346C44.4262 48.4806 43.4371 48.7112 42.3967 48.8422Z" fill="#353943"/>
<path fill-rule="evenodd" clip-rule="evenodd" d="M101.556 42.4333C101.818 42.5839 102.082 42.7375 102.348 42.8943C104.153 43.9583 105.245 45.7928 106.251 47.4817C107.143 48.9805 107.968 50.3647 109.161 50.9942C111.398 52.1738 112.912 51.9101 114.914 49.0529C117.118 45.9067 112.976 45.3711 111.908 48.4504C111.707 44.367 114.379 43.296 116.383 44.7017C116.368 44.6207 116.356 44.5393 116.346 44.4576C116.272 44.1138 116.158 43.8461 116.044 43.5807C115.773 42.9474 115.508 42.3269 115.811 40.7162C116.282 41.0333 116.63 41.5603 116.844 41.9642C117.232 41.3412 117.833 40.8658 118.654 40.6853C121.393 40.0828 123.53 42.6266 122.929 45.4381C121.146 42.5282 119.402 43.0054 118.823 44.732C119.183 44.5082 119.648 44.2837 120.122 44.2311C119.664 45.7421 119.163 46.1938 118.651 46.6146C118.652 46.6241 118.653 46.6335 118.654 46.643C119.656 45.9736 122.195 48.3835 120.124 50.7264C119.656 48.1157 117.608 49.1951 116.049 50.7264C115.93 50.8434 115.812 50.9551 115.695 51.0619C116.007 51.0999 116.558 51.2647 116.844 51.4097C115.476 52.5616 114.534 52.5591 113.779 52.6486C113.564 52.6741 113.346 52.7 113.109 52.751C111.127 53.5288 109.572 52.9381 108.56 52.3999C106.277 51.1858 105.326 49.8413 104.348 48.4574C103.924 47.8575 103.494 47.2503 102.949 46.643C102.778 46.4528 102.589 46.3004 102.382 46.1798C102.306 46.43 102.215 46.6896 102.122 46.956C101.747 48.0318 101.333 49.2195 101.662 50.3567C101.908 51.5338 102.446 52.3174 102.803 52.8378C103.081 53.243 103.25 53.4886 103.086 53.636C102.375 54.2747 98.0718 59.001 95.7618 63.9365C95.7468 63.9687 95.7257 63.9967 95.6997 64.0206C96.3166 64.1482 97.3392 64.2188 97.8245 64.1214C98.26 64.0341 98.5139 64.2078 98.6198 64.4706C98.8569 64.5684 99.1269 64.7445 99.3243 65.006C99.5197 65.2647 99.433 65.2618 99.2023 65.2541C99.0359 65.2486 98.7947 65.2405 98.5302 65.3261C98.3741 65.5625 98.0952 65.6847 97.6955 65.4949C97.1619 65.2414 95.5169 64.7699 95.1581 64.9093C95.0628 64.9463 94.9689 64.9672 94.8837 64.966C94.8109 65.0056 94.7216 65.0312 94.6238 65.0442C94.2424 65.0951 93.0269 66.3019 92.6809 66.7814C92.4218 67.1405 92.1186 67.168 91.8683 67.0361C91.5953 67.0886 91.3877 67.2121 91.2445 67.2972C91.046 67.4152 90.9714 67.4596 91.0184 67.1386C91.0659 66.8141 91.218 66.5296 91.3788 66.3295C91.3454 66.048 91.4845 65.7732 91.9082 65.6398C92.3758 65.4925 93.2262 64.9466 93.7082 64.5384C93.0706 64.4847 91.965 64.5842 91.5251 64.6912C91.0953 64.7958 90.847 64.6194 90.742 64.3562C90.5004 64.2185 90.2625 64.1773 90.0985 64.1489C89.871 64.1095 89.7856 64.0947 90.0293 63.8811C90.2756 63.6652 90.5757 63.5478 90.8276 63.5002C90.9846 63.2645 91.2684 63.146 91.6771 63.3202C92.0693 63.4873 92.8765 63.6136 93.4954 63.6458C93.025 63.2637 92.4242 62.8614 92.1156 62.7092C91.7188 62.5134 91.641 62.2185 91.7287 61.949C91.6312 61.6882 91.475 61.5038 91.3672 61.3767C91.2178 61.2004 91.1617 61.1341 91.4853 61.1267C91.8124 61.1192 92.1179 61.2216 92.3417 61.3469C92.613 61.2668 92.9066 61.358 93.109 61.7543C93.3439 62.214 94.0831 63.0177 94.5672 63.4078C94.8678 62.8462 95.2316 61.9759 95.6303 61.0222C96.3615 59.2729 97.21 57.2431 98.0006 56.3235C96.5401 55.2152 94.1223 53.3591 93.5477 49.779C93.1375 51.3512 92.876 53.0354 92.9908 54.4971L93.004 54.5886C93.0254 54.6986 93.0673 54.8307 93.1075 54.9577C93.1942 55.2313 93.2734 55.4815 93.1261 55.4376C91.4895 54.805 88.485 53.9045 86.5254 53.6382C86.859 54.0349 87.2837 54.458 87.5679 54.6339C87.9092 54.8452 87.9699 55.1167 87.8783 55.3556C87.9747 55.5666 88.0447 55.8496 88.0142 56.1443C87.9842 56.4357 87.9287 56.3803 87.7811 56.2327C87.6747 56.1263 87.5204 55.972 87.2931 55.8652C87.0446 55.9248 86.7853 55.8332 86.6382 55.4612C86.4417 54.9643 85.6455 53.637 85.3229 53.5075C85.2768 53.489 85.2339 53.4677 85.1954 53.4436C85.1302 53.449 85.0586 53.4425 84.9847 53.4265C84.645 53.3529 83.2439 54.0063 82.8036 54.3079C82.4739 54.5337 82.2079 54.4642 82.0353 54.2755C81.7873 54.2365 81.5732 54.2778 81.4256 54.3063C81.2209 54.3458 81.144 54.3607 81.2818 54.1023C81.4211 53.8411 81.6371 53.6458 81.8348 53.525C81.8923 53.2755 82.0943 53.0846 82.4951 53.101C82.9165 53.1181 83.7432 52.9343 84.2824 52.7446C83.9131 52.48 82.5991 52.1506 82.1085 52.1084C81.7106 52.0742 81.5485 51.8517 81.534 51.5961C81.3666 51.4086 81.1748 51.3049 81.0425 51.2333C80.859 51.1341 80.7901 51.0968 81.0599 50.9841C81.3328 50.8702 81.6233 50.856 81.8527 50.8878C82.0547 50.7312 82.3317 50.7114 82.6317 50.9782C83.0155 51.3196 84.0521 51.8111 84.5526 51.9333C84.2765 51.427 83.8374 50.8001 83.6027 50.5477C83.3305 50.2548 83.3592 49.9808 83.5196 49.7815C83.5209 49.53 83.448 49.3241 83.3978 49.1821C83.3281 48.9851 83.3019 48.9112 83.5775 49.009C83.8561 49.1079 84.0812 49.2927 84.23 49.4704C84.4847 49.49 84.7033 49.6615 84.7473 50.0611C84.8125 50.6537 85.3932 51.9858 85.6576 52.2117C85.684 52.2342 85.7085 52.2576 85.7306 52.2815C87.0651 52.0544 87.9066 52.0836 89.2078 52.1288L89.2111 52.1289L89.2127 52.129L89.2135 52.129C89.4632 52.1376 89.7298 52.1469 90.0201 52.155C88.7884 51.7025 86.6805 49.9953 87.6298 46.9608C87.8725 46.1847 88.3457 45.4864 88.9222 44.9113C88.2619 44.6299 87.593 44.3127 86.9365 43.9678C86.9389 44.1082 86.9304 44.2489 86.9076 44.3864C86.1598 43.9064 85.7411 43.505 85.4708 43.1371L85.4453 43.1215C85.474 43.3621 85.4778 43.6114 85.438 43.8509C84.3282 43.1383 83.9433 42.5991 83.6923 42.0858C81.615 42.5533 78.93 43.2508 76.7426 44.536C76.7394 44.5379 76.7363 44.5397 76.733 44.5414C77.2588 44.8018 78.0314 45.0824 78.4474 45.1218C78.8596 45.1607 79.0398 45.384 79.0641 45.6471C79.2496 45.7981 79.4435 46.0278 79.5499 46.3143C79.6551 46.5977 79.5785 46.5719 79.3746 46.503C79.2275 46.4534 79.0143 46.3814 78.7553 46.3868C78.5527 46.5559 78.271 46.59 77.965 46.3133C77.5564 45.9437 76.2139 45.0809 75.8563 45.1089C75.7613 45.1164 75.6719 45.1098 75.5961 45.0859C75.5205 45.1017 75.434 45.1005 75.3432 45.0859C74.9891 45.0289 73.5812 45.7799 73.1441 46.115C72.8167 46.366 72.5387 46.3091 72.3505 46.1241C72.0927 46.0977 71.8744 46.1521 71.7238 46.1897C71.515 46.2417 71.4366 46.2613 71.5644 45.9874C71.6935 45.7104 71.9054 45.4972 72.1025 45.3618C72.148 45.1015 72.3456 44.8936 72.7596 44.8883C73.2164 44.8823 74.1215 44.6234 74.6611 44.3885C74.1063 44.1692 73.0926 43.9612 72.6712 43.9386C72.2596 43.9164 72.0851 43.6923 72.0617 43.4291C71.8828 43.2413 71.6815 43.1406 71.5427 43.0712C71.3501 42.9749 71.2778 42.9388 71.5525 42.8136C71.8301 42.687 72.1294 42.6627 72.367 42.688C72.5702 42.5196 72.8553 42.4901 73.1736 42.7554C73.479 43.0099 74.1659 43.3394 74.7098 43.5344C74.392 43.0669 73.9632 42.5464 73.7284 42.3277C73.4266 42.0464 73.4359 41.7622 73.5863 41.5452C73.569 41.2861 73.4789 41.0795 73.4167 40.9371C73.3304 40.7395 73.298 40.6653 73.5889 40.7456C73.883 40.8267 74.1283 41.0003 74.2946 41.1722C74.5582 41.1735 74.7959 41.3339 74.8707 41.742C74.961 42.2351 75.44 43.2085 75.7706 43.6671C76.6424 42.8477 79.2465 41.1335 81.4398 39.7305C81.0612 39.21 80.8009 38.6896 80.6936 38.1824C80.4125 38.1294 80.0557 38.2736 79.7029 38.4987C79.9946 35.2772 78.2454 31.8589 76.0554 29.3754C75.9588 29.9701 75.9188 30.8372 76.0097 31.2642C76.098 31.6788 75.936 31.9231 75.6875 32.0273C75.5974 32.2547 75.4334 32.5144 75.1872 32.706C74.9438 32.8954 74.9455 32.8127 74.9501 32.5925C74.9534 32.4337 74.9582 32.2034 74.8736 31.952C74.6472 31.8059 74.5278 31.5412 74.7033 31.1576C74.9377 30.6454 75.3661 29.0701 75.2293 28.7295C75.2262 28.7216 75.2231 28.7138 75.2202 28.706C75.1296 28.6556 75.0525 28.5606 74.9922 28.4426C74.8252 28.1158 73.3576 27.4069 72.818 27.2483C72.4139 27.1296 72.2928 26.8657 72.3312 26.5986C72.1973 26.3698 72.0207 26.2224 71.8989 26.1207C71.7299 25.9797 71.6665 25.9268 71.9689 25.8669C72.2746 25.8063 72.5778 25.8525 72.8082 25.9334C73.0497 25.8138 73.3399 25.8514 73.5944 26.19C73.8517 26.5324 74.5109 27.0572 75.0187 27.3763C74.7959 26.7987 74.3208 25.9586 74.0712 25.6368C73.8129 25.3035 73.8688 25.0185 74.0559 24.8244C74.0809 24.5604 74.0238 24.3372 73.9843 24.1834C73.9297 23.97 73.9092 23.8899 74.1893 24.0186C74.4726 24.1487 74.6915 24.364 74.8311 24.5647C75.0967 24.6093 75.3102 24.81 75.3188 25.2338C75.3289 25.7278 75.6305 26.7318 75.8837 27.266C76.0067 26.6587 76.0625 25.7164 76.0285 25.3161C75.9928 24.8957 76.1946 24.6871 76.457 24.6264C76.6214 24.4185 76.6946 24.2002 76.7452 24.0496C76.8152 23.8408 76.8416 23.7624 77.0066 24.0232C77.1736 24.2869 77.2403 24.587 77.2483 24.8315C77.4469 25.0138 77.5169 25.2986 77.2939 25.6588C76.9632 26.1929 76.58 27.6766 76.6527 28.0365C76.6631 28.0879 76.6692 28.1381 76.6703 28.1861C77.6918 28.9513 79.7916 31.4323 81.4784 33.4254L81.6758 33.6586C82.1656 32.8158 82.778 32.1243 83.3981 31.5237C83.2339 31.524 83.0691 31.5101 82.9096 31.4767C83.8416 30.1433 84.4657 29.9017 85.1027 29.6551C85.3034 29.5774 85.5055 29.4992 85.7188 29.3862C86.273 28.7733 86.5622 28.173 86.3214 27.4463C86.0015 27.0085 85.8293 26.6403 85.6753 26.3111C85.3702 25.6587 85.1365 25.1592 83.9667 24.573C83.0521 24.1148 82.3612 23.7759 81.9181 23.6922C81.8493 23.6792 81.7811 23.6663 81.7093 23.6509C81.4209 23.5888 80.6405 22.9185 80.8409 21.7805C81.4674 22.5129 82.1216 22.5937 83.1261 22.7871C83.3465 22.8143 83.5774 22.8428 83.8212 22.8872C84.5343 23.0172 84.9392 22.9487 84.9392 22.9487C84.9392 22.9487 84.3398 21.9307 83.4733 21.5385C83.4015 21.506 83.3325 21.4747 83.2659 21.4445C81.9232 20.8347 81.5918 20.6841 80.2553 21.003C80.2553 20.0658 80.8053 19.4604 81.2278 19.2487C81.8967 18.9135 82.5229 19.0739 83.1496 19.2344C83.8592 19.4161 84.5696 19.598 85.3436 19.061C86.212 18.4585 86.9201 18.3743 88.5206 18.8625C88.8799 18.9721 89.2146 19.0917 89.5268 19.2207C90.1271 18.6571 90.7012 17.8859 90.7012 16.5163C91.5206 17.4665 92.2655 18.5548 92.2655 19.8787C92.2655 19.9402 92.2653 20.0004 92.2649 20.0592C92.522 19.8776 92.7669 19.7334 92.9924 19.6006C93.4203 19.3487 93.7784 19.1379 94.0177 18.7903C94.3824 18.2606 94.5499 17.9622 94.6873 17.7173C94.793 17.5288 94.881 17.372 95.0274 17.166C95.6332 18.9934 95.7678 21.0238 94.8254 22.3098C94.4619 22.8058 94.0155 23.127 93.5825 23.3315C93.7294 23.5926 93.8368 23.9235 93.9119 24.3089C94.0451 24.6828 94.2146 24.9512 94.3825 25.2172C94.7502 25.7994 95.1104 26.3699 95.0662 28.0083C94.654 27.8179 94.2989 27.4825 94.032 27.1694C94.0278 27.2589 94.0231 27.349 94.0179 27.4398C94.0735 28.0587 94.2486 28.4448 94.4215 28.8262C94.7059 29.4534 94.9846 30.068 94.7166 31.6849C94.3242 31.4331 94.0124 31.0383 93.7896 30.6842C93.8362 30.8926 93.897 31.0786 93.9575 31.2635C94.1715 31.9182 94.3813 32.5597 93.938 34.1374C93.6718 33.9219 93.4615 33.9748 93.2996 34.1399C94.7273 35.9102 96.5932 34.1125 97.0339 32.8326C97.2517 32.1999 97.1121 31.6057 96.9536 30.9312C96.7046 29.8716 96.4091 28.6137 97.379 26.6965C97.9217 25.6236 99.449 24.2898 101.265 22.7035C104.761 19.6506 109.328 15.6624 110.009 10.7986C111.32 14.7033 109.871 18.9567 108.767 20.2816C109.879 19.657 110.771 18.1932 111.837 16.4414L111.837 16.4412C111.962 16.2374 112.088 16.0297 112.217 15.819C112.602 18.5822 112.193 20.4364 111.432 21.7956C116.045 19.7151 120.89 17.1964 122.656 13.5275C123.348 19.1731 119.504 22.1893 116.659 23.5041C118.273 23.5041 121.272 22.576 122.656 20.7972C122.656 25.2055 117.581 28.1443 114.813 28.531C116.044 28.9177 119.811 29.227 121.503 27.5256C120.236 31.3351 115.428 33.3259 112.814 33.0939C113.429 33.8673 114.506 34.254 116.351 34.0993C115.275 36.6515 110.661 37.0382 108.355 36.5741C108.355 37.4249 109.431 38.4302 110.584 38.3529C110.277 39.1263 108.355 39.6676 106.125 38.6623C106.048 39.3583 106.894 39.8223 108.201 40.5184C106.894 41.0597 104.664 41.2144 103.665 40.209C103.511 40.9824 104.203 41.6784 104.741 42.0651C103.665 42.3745 101.358 41.8331 100.358 40.673C100.358 41.4765 100.917 41.9626 101.556 42.4333ZM87.1238 20.42C87.068 20.4364 87.0145 20.4522 86.963 20.4639C87.1604 20.5572 87.2931 20.7301 87.4249 20.9019C87.7094 21.2726 87.9897 21.6379 88.908 21.1856C88.0583 20.1447 87.5273 20.3011 87.1238 20.42Z" fill="#CAA74D"/>
</svg>
