<svg width="135" height="90" viewBox="0 0 135 90" fill="none" xmlns="http://www.w3.org/2000/svg">
<path d="M48.7585 51.9264C48.1986 51.9986 47.6122 52.0356 47.0017 52.0356C46.3773 52.0356 45.8151 51.9964 45.3035 51.9323L46.1493 49.4474C46.4461 49.472 46.7308 49.4828 47.0017 49.4828C47.2979 49.4828 47.5858 49.4709 47.8649 49.4475L46.7637 46.3929L44.8041 51.8597L44.803 51.8595L39.7982 65.8125H38.2231L31.6427 44.5451C31.1526 42.9065 30.5576 42.1743 29.4375 41.6862L29.4725 41.4073H34.7579L34.7929 41.6862C33.9178 42.1395 33.7078 42.767 34.2678 44.6149L39.1332 60.9663L42.5576 51.302L42.4408 51.2661C41.6814 51.0325 41.0441 50.8365 40.4004 50.8365C39.9733 50.8365 39.5073 50.9139 39.0801 51.1846L38.8472 51.1073L37.3328 44.8415L37.6434 44.7254C39.6293 46.9703 41.6281 48.2061 43.426 48.8513L46.0637 41.4073H47.6388L50.2742 48.8826C52.179 48.0797 53.2923 46.5277 53.2923 44.5707C53.2923 41.4378 50.5353 40.2001 47.7394 39.4653L44.866 38.6917C41.5265 37.7634 37.9929 35.9842 37.9929 31.4589C37.9929 27.0497 41.3712 24.1875 46.4969 24.1875C48.3949 24.1875 49.7429 24.6169 50.7708 24.9443C51.4043 25.1461 51.9162 25.3092 52.3603 25.3092C52.671 25.3092 52.904 25.2318 53.1758 24.9997L53.4088 25.0384L54.5737 30.7241L54.263 30.8401C52.2438 28.1713 49.448 26.7016 46.3804 26.7016C43.0409 26.7016 40.711 28.4421 40.711 31.2655C40.711 34.2824 43.3515 35.172 46.3027 36.0229L49.1762 36.8352C53.0204 37.9568 56.0493 39.8907 56.0493 44.3C56.0493 47.6935 54.2217 50.2068 51.1444 51.3508C50.4188 51.6198 49.6152 51.8159 48.7585 51.9264Z" fill="#0D162D"/>
<path d="M48.9152 52.3612L53.7643 65.8125H55.3394L61.9198 44.5451C62.4099 42.9065 63.0049 42.1743 64.125 41.6862L64.09 41.4073H58.9096L58.8746 41.6862C59.7147 42.1395 59.9247 42.767 59.3647 44.6149L54.5343 60.9663L51.2929 51.7721C50.6048 52.0601 49.7814 52.2521 48.9152 52.3612Z" fill="#0D162D"/>
<path fill-rule="evenodd" clip-rule="evenodd" d="M86.724 40.9963C86.6275 39.9996 86.6175 38.4815 86.9217 37.1254C87.4507 34.7676 92.0005 27.4324 97.0792 25.1795C96.0938 26.3281 94.6836 28.3888 95.3906 30C98.0716 28.3918 102.331 26.3286 105.625 25C102.321 27.1875 102.891 32.4219 104.824 32.6454C102.813 32.7423 101.719 37.9687 103.371 38.6675C101.484 38.5156 98.9844 41.9531 100.066 43.2233C98.75 42.2821 94.7656 44.3301 95.1076 46.6271C94.375 44.3301 90.971 44.2505 88.668 45.0034C89.137 45.2302 89.6357 45.4628 90.1559 45.7055L90.1564 45.7057C90.4545 45.8448 90.7597 45.9871 91.0704 46.1336C93.5248 47.2904 93.9656 49.1633 94.365 50.8604C94.632 51.9947 94.8805 53.0505 95.6994 53.7614C97.3017 55.1524 98.1474 53.5819 97.9694 51.2487C97.7913 48.9155 98.37 46.7169 100.239 45.3708C100.085 45.4227 99.9365 45.4686 99.7921 45.5133C98.8123 45.8165 98.0204 46.0615 96.8566 47.704C97.143 45.731 98.7131 45.0353 100.305 44.3301C101.681 43.7202 103.074 43.1032 103.667 41.6466C103.667 42.8568 102.989 43.8802 102.321 44.8904C101.453 46.2024 100.599 47.4921 101.263 49.1398C100.061 48.0181 100.15 46.7169 100.907 45.5503L100.852 45.5924C99.5492 46.5988 98.7486 47.2172 99.1711 50.9346C99.6607 55.2421 97.7023 56.8125 94.7647 55.5113C92.9252 54.6965 92.6215 52.9668 92.3564 51.457C92.3464 51.3998 92.3364 51.343 92.3264 51.2866C92.3118 51.3247 92.2971 51.363 92.2824 51.4014C91.9619 52.2362 91.6179 53.1322 91.8271 53.9409C91.996 54.8775 92.5215 55.2733 92.8171 55.4959C92.9888 55.6252 93.0829 55.6961 92.9843 55.7805C92.4756 56.2164 89.379 59.4598 87.6722 62.8879C87.6654 62.9015 87.6571 62.914 87.6474 62.9254C88.1144 63.0455 88.9575 63.1313 89.3519 63.0627C89.6916 63.0036 89.8849 63.1444 89.9617 63.3517C90.1436 63.433 90.3494 63.576 90.4972 63.7842C90.6434 63.9902 90.5762 63.9861 90.3974 63.9753C90.2685 63.9675 90.0815 63.9561 89.8745 64.0175C89.7486 64.1986 89.5297 64.2882 89.2236 64.1318C88.8149 63.9229 87.5484 63.5206 87.2673 63.6219C87.1925 63.6488 87.1193 63.6632 87.0532 63.6605C86.9959 63.6899 86.9261 63.7079 86.85 63.7161C86.5531 63.7478 85.5853 64.6643 85.307 65.0313C85.0985 65.3061 84.8628 65.3212 84.6713 65.2131C84.4585 65.2484 84.2949 65.3404 84.1821 65.4038C84.0256 65.4918 83.9669 65.5248 84.0099 65.2754C84.0535 65.0231 84.1773 64.8042 84.3062 64.6514C84.2861 64.4311 84.3996 64.2196 84.7311 64.1243C85.0969 64.0191 85.7678 63.6108 86.1501 63.3023C85.6567 63.2471 84.7969 63.3018 84.4534 63.3761C84.1179 63.4487 83.9289 63.3059 83.8529 63.0983C83.6683 62.9859 83.4846 62.9487 83.358 62.9232C83.1823 62.8877 83.1163 62.8743 83.3098 62.7128C83.5053 62.5495 83.7405 62.464 83.9369 62.4322C84.0636 62.2515 84.2862 62.1649 84.5997 62.3094C84.9004 62.448 85.524 62.5633 86.0035 62.6013C85.6464 62.2933 85.1886 61.9669 84.9524 61.8417C84.6486 61.6807 84.5943 61.449 84.6679 61.2405C84.5977 61.0349 84.4803 60.8878 84.3993 60.7863C84.287 60.6456 84.2448 60.5928 84.496 60.5937C84.75 60.5946 84.9848 60.681 85.1559 60.7834C85.368 60.7265 85.5938 60.8038 85.7427 61.1172C85.9195 61.4895 86.499 62.1542 86.8657 62.4598C87.0828 62.0697 87.3464 61.48 87.6344 60.8356C88.1782 59.619 88.8092 58.2073 89.379 57.5753C87.5942 56.5677 86.4364 55.3582 86.3027 52.9282C86.1496 54.1857 86.1515 55.4871 86.4859 56.4984C85.5223 56.2678 83.6655 55.8875 82.2812 55.7681C82.615 56.0073 82.9942 56.2347 83.239 56.3167C83.5661 56.4263 83.6706 56.6425 83.6411 56.8618C83.7634 57.02 83.8778 57.244 83.9106 57.4979C83.943 57.749 83.8857 57.7135 83.7331 57.6188C83.6231 57.5506 83.4636 57.4516 83.2525 57.4071C83.0566 57.5069 82.8217 57.4816 82.6251 57.198C82.3627 56.8193 81.4347 55.8619 81.1394 55.8173C81.0972 55.811 81.0571 55.8016 81.0202 55.7891C80.9668 55.8066 80.9057 55.8154 80.8406 55.8167C80.5421 55.8226 79.4998 56.6518 79.1912 56.9933C78.9601 57.2491 78.724 57.2437 78.5424 57.1194C78.3273 57.1361 78.1565 57.2136 78.0387 57.267C77.8753 57.3411 77.814 57.369 77.8781 57.1241C77.943 56.8766 78.0851 56.6693 78.2265 56.5282C78.2253 56.3069 78.3564 56.1061 78.6948 56.0398C79.0505 55.9701 79.7054 55.6506 80.1187 55.3834C79.7578 55.2345 78.594 55.2197 78.1754 55.2821C77.836 55.3328 77.6565 55.1779 77.5939 54.9659C77.4169 54.8416 77.236 54.7926 77.1113 54.7589C76.9382 54.712 76.8733 54.6944 77.0766 54.5458C77.2822 54.3955 77.5224 54.3256 77.7204 54.3066C77.8584 54.1345 78.0861 54.0626 78.3897 54.2272C78.778 54.4376 79.7418 54.6442 80.1844 54.647C79.8535 54.2763 79.3625 53.8367 79.1165 53.6712C78.831 53.4792 78.8009 53.243 78.8956 53.0434C78.847 52.8316 78.7454 52.6729 78.6753 52.5635C78.5782 52.4118 78.5417 52.3548 78.7914 52.3821C79.0439 52.4097 79.2686 52.5202 79.4281 52.64C79.6449 52.6056 79.8616 52.7062 79.9773 53.0336C80.1489 53.5189 80.8976 54.5234 81.1633 54.6607C81.2302 54.6952 81.288 54.7365 81.3308 54.7836C82.1203 54.578 82.6832 54.5372 83.5155 54.4769C83.691 54.4642 83.8784 54.4506 84.0824 54.4344C83.1922 54.2101 81.4063 52.5635 82.035 50.5757C82.4248 49.3431 83.6064 48.7991 84.6094 48.4507C84.848 48.3678 85.3229 48.4014 84.8836 48.3322C83.4436 48.1054 81.3211 47.3511 79.5742 46.3592C78.2748 47.0554 76.6485 48.0062 75.4413 49.2475C75.4294 49.2598 75.4159 49.271 75.4011 49.281C75.8647 49.4032 76.7223 49.4917 77.1211 49.4223C77.4607 49.3632 77.6541 49.5041 77.7308 49.7114C77.9127 49.7926 78.1185 49.9357 78.2663 50.1439C78.4125 50.3498 78.3454 50.3457 78.1665 50.3349C78.0376 50.3271 77.8506 50.3158 77.6437 50.3771C77.5177 50.5583 77.2988 50.6478 76.9927 50.4914C76.584 50.2825 75.3175 49.8803 75.0364 49.9815C74.9616 50.0085 74.8884 50.0228 74.8223 50.0201C74.765 50.0495 74.6952 50.0676 74.6191 50.0757C74.3222 50.1075 73.3544 51.0239 73.0761 51.3909C72.8677 51.6657 72.6319 51.6808 72.4404 51.5727C72.2276 51.608 72.064 51.7 71.9512 51.7634C71.7947 51.8514 71.736 51.8845 71.779 51.635C71.8226 51.3828 71.9464 51.1639 72.0753 51.0111C72.0552 50.7907 72.1688 50.5792 72.5002 50.4839C72.866 50.3787 73.5369 49.9705 73.9193 49.662C73.4258 49.6067 72.5661 49.6614 72.2226 49.7358C71.887 49.8084 71.698 49.6655 71.622 49.458C71.4374 49.3455 71.2537 49.3084 71.1271 49.2828C70.9514 49.2473 70.8855 49.234 71.0789 49.0724C71.2745 48.9091 71.5096 48.8237 71.7061 48.7918C71.8327 48.6111 72.0553 48.5246 72.3688 48.669C72.6695 48.8076 73.2931 48.9229 73.7726 48.961C73.4155 48.653 72.9577 48.3266 72.7215 48.2013C72.4178 48.0403 72.3634 47.8086 72.437 47.6001C72.3668 47.3945 72.2494 47.2474 72.1684 47.146C72.0561 47.0052 72.0139 46.9524 72.2651 46.9533C72.5191 46.9543 72.7539 47.0406 72.925 47.143C73.1371 47.0861 73.363 47.1635 73.5118 47.4769C73.6889 47.8497 74.2697 48.5157 74.6364 48.8207C75.089 48.0913 76.5332 46.4481 77.7519 45.0966C77.1844 44.597 76.7188 44.0757 76.6008 43.5506C76.4864 43.0409 76.0702 43.1601 75.5366 43.3068C75.7952 41.0903 74.6853 38.7039 73.2419 36.9263C73.0848 37.217 72.9461 38.4198 73.0373 38.9149C73.1002 39.2566 72.9629 39.4532 72.7582 39.5332C72.6799 39.7176 72.5406 39.9268 72.336 40.0784C72.1336 40.2284 72.1367 40.1607 72.1452 39.9802C72.1514 39.8502 72.1602 39.6616 72.0968 39.4537C71.9155 39.329 71.8239 39.1095 71.9752 38.799C72.1773 38.3844 72.5604 37.1027 72.4564 36.8206C72.454 36.8141 72.4517 36.8076 72.4495 36.8011C72.3767 36.7578 72.3159 36.6783 72.2694 36.5803C72.1404 36.3089 70.9601 35.6958 70.5239 35.554C70.1973 35.4479 70.1044 35.229 70.1415 35.0109C70.0373 34.8205 69.8966 34.6958 69.7996 34.6099C69.665 34.4906 69.6145 34.4458 69.8621 34.4033C70.1125 34.3604 70.3585 34.4049 70.5445 34.4762C70.7438 34.3835 70.9794 34.4207 71.1794 34.7037C71.3816 34.9899 71.9072 35.4344 72.3141 35.707C72.145 35.2288 71.7762 34.5299 71.5798 34.2607C71.3766 33.982 71.4283 33.7497 71.585 33.5947C71.611 33.3788 71.5693 33.1947 71.5405 33.0678C71.5006 32.8917 71.4856 32.8256 71.7111 32.9372C71.9391 33.0501 72.1128 33.2313 72.2221 33.3988C72.4375 33.4412 72.6071 33.6103 72.6049 33.9578C72.6024 34.3629 72.8264 35.1922 73.0211 35.6356C73.1345 35.1406 73.2003 34.3696 73.1813 34.0408C73.1614 33.6954 73.3302 33.5289 73.5453 33.4849C73.6838 33.3181 73.7482 33.1408 73.7926 33.0185C73.8542 32.8489 73.8773 32.7853 74.0062 33.0026C74.1365 33.2224 74.1843 33.4697 74.1856 33.6703C74.3434 33.8241 74.3942 34.059 74.2048 34.3493C73.9778 34.6971 73.7094 35.5522 73.6419 36.0241C74.3531 36.6108 75.7481 38.3612 76.8723 39.7718C77.0058 39.9394 77.1355 40.1021 77.2598 40.2576C77.7805 39.3956 78.489 38.7737 79.0972 38.2398C79.9227 37.5153 80.5634 36.9529 80.2991 36.1725C79.7593 35.5582 79.5397 35.2253 79.3977 35.0102C79.1768 34.6754 79.1439 34.6256 78.3852 34.2431C77.6308 33.8629 77.2842 33.795 77.0589 33.7509C76.912 33.7222 76.8168 33.7035 76.6938 33.615C76.5339 33.4998 76.2042 33.1214 76.2042 32.8522C76.6493 32.8073 77.7986 33.0699 78.5187 33.3009C79.2163 33.5246 79.4395 33.589 79.5585 33.4777C79.3942 33.4133 79.2312 33.3441 79.0664 33.2742C78.367 32.9772 77.5604 32.6406 76.7902 32.5901C75.7485 32.5218 73.9494 32.8215 73.5453 31.1179C74.4235 31.8556 75.355 31.4718 76.2932 31.6707C76.7817 31.7742 77.3819 32.0529 78.0091 32.2636C78.4938 32.4265 79.1454 32.5912 79.7213 32.6888C79.8296 32.7072 79.9343 32.7249 80.0336 32.7423C79.9866 32.5829 79.6893 32.4933 79.2637 32.3649C78.9386 32.2669 78.5387 32.1463 78.1181 31.9548C77.1055 31.4938 76.6048 31.3715 75.7591 31.192C75.7287 31.0633 76.0227 30.7061 76.2932 30.5638C76.9526 30.217 77.7953 30.263 78.3852 30.3025C78.922 30.3384 79.3058 30.3025 79.8438 30.3025C80.7746 30.3025 81.4844 29.9219 82.6136 30.4741C82.9669 30.6468 83.2367 30.519 83.6818 30.0703C84.0283 29.721 84.4203 29.5776 84.6165 29.0831C84.9914 29.5192 84.858 30.1592 84.7927 30.4725C84.7573 30.6427 84.7419 30.7165 84.8391 30.6087C85.2003 30.2081 85.7275 30.1401 86.0408 29.6664C86.3524 30.0703 86.0853 30.6984 85.4622 31.865C85.1563 32.4378 85 32.7344 84.9505 33.0148C84.8497 33.5856 84.9757 34.238 85.4265 34.5628C86.25 35.1562 86.6644 35.5908 86.7975 36.0379C86.4074 35.9916 85.8181 35.5065 85.4534 35.6344C85.2124 35.7189 85.197 36.2643 85.4155 36.4267C86.0659 36.9101 86.25 37.1254 86.4063 37.5913C85.9009 37.5913 85.7813 37.4219 85.3453 37.262C85.0714 37.1616 84.9584 37.8906 85.2515 38.1357C85.745 38.5483 85.9375 38.7632 86.0938 39.2319C85.625 39.1538 85.625 38.9844 85.1606 38.8945C84.8346 38.8314 84.8154 39.6439 85.0432 39.8521C85.5469 40.3125 85.6375 40.5563 85.7176 40.8681C85.4066 40.9042 85.1563 40.5601 84.9584 40.6034C84.4296 40.7193 84.4908 42.0231 84.9871 42.2821C86.3281 42.9819 86.634 42.2278 86.724 40.9963ZM80.8722 31.552C80.9169 31.524 80.9601 31.4894 81.0054 31.4531C81.2295 31.2739 81.5034 31.0547 82.2474 31.3895C81.7251 31.7779 81.483 31.6992 81.236 31.6189C81.1245 31.5826 81.012 31.546 80.8722 31.552Z" fill="#0D162D"/>
</svg>
