<svg width="840" height="480" viewBox="0 0 840 480" fill="none" xmlns="http://www.w3.org/2000/svg">
<rect width="840" height="480" fill="#FAFAFA"/>
<path d="M253.25 289.92C249.215 290.44 244.989 290.707 240.589 290.707C236.089 290.707 232.037 290.425 228.349 289.963L234.445 272.053C236.585 272.231 238.636 272.309 240.589 272.309C242.723 272.309 244.798 272.223 246.81 272.054L238.874 250.039L224.751 289.439L224.742 289.438L188.672 390H177.32L129.893 236.722C126.361 224.912 122.073 219.635 114 216.117L114.252 214.107H152.345L152.597 216.117C146.291 219.384 144.777 223.907 148.813 237.224L183.879 355.073L208.56 285.42L207.717 285.161C202.245 283.478 197.651 282.065 193.012 282.065C189.933 282.065 186.575 282.623 183.497 284.574L181.817 284.016L170.903 238.857L173.142 238.021C187.455 254.2 201.86 263.107 214.818 267.757L233.828 214.107H245.181L264.174 267.983C277.902 262.196 285.926 251.01 285.926 236.906C285.926 214.327 266.056 205.406 245.906 200.11L225.196 194.535C201.128 187.845 175.66 175.022 175.66 142.407C175.66 110.628 200.008 90 236.95 90C250.63 90 260.345 93.0947 267.754 95.4546C272.319 96.9088 276.008 98.084 279.21 98.084C281.448 98.084 283.128 97.5265 285.087 95.854L286.766 96.1327L295.162 137.11L292.923 137.947C278.37 118.712 258.22 108.119 236.111 108.119C212.043 108.119 195.251 120.664 195.251 141.013C195.251 162.756 214.281 169.168 235.551 175.3L256.261 181.154C283.967 189.238 305.796 203.176 305.796 234.955C305.796 259.412 292.625 277.526 270.446 285.772C265.216 287.71 259.425 289.124 253.25 289.92Z" fill="#0D162D"/>
<path d="M254.38 293.053L289.328 390H300.68L348.107 236.722C351.639 224.912 355.927 219.635 364 216.117L363.748 214.107H326.412L326.159 216.117C332.214 219.384 333.728 223.907 329.691 237.224L294.878 355.073L271.516 288.808C266.557 290.883 260.623 292.267 254.38 293.053Z" fill="#0D162D"/>
<path fill-rule="evenodd" clip-rule="evenodd" d="M609.336 254.6C610.905 255.504 612.49 256.425 614.086 257.366C624.916 263.75 631.47 274.757 637.504 284.89C642.86 293.883 647.805 302.188 654.966 305.965C668.385 313.043 677.47 311.461 689.481 294.317C702.707 275.44 677.858 272.227 671.446 290.703C670.243 266.202 686.275 259.776 698.298 268.21C698.21 267.724 698.136 267.236 698.076 266.746C697.632 264.683 696.945 263.077 696.264 261.484C694.64 257.684 693.048 253.961 694.866 244.297C697.694 246.2 699.777 249.362 701.067 251.786C703.392 248.047 707 245.195 711.925 244.112C728.357 240.497 741.182 255.759 737.575 272.629C726.878 255.17 716.413 258.033 712.937 268.392C715.097 267.05 717.886 265.702 720.73 265.387C717.985 274.453 714.979 277.163 711.907 279.688C711.913 279.744 711.919 279.801 711.925 279.858C717.937 275.842 733.167 290.301 720.742 304.359C717.937 288.694 705.646 295.171 696.294 304.359C695.58 305.06 694.872 305.731 694.17 306.371C696.039 306.599 699.346 307.588 701.067 308.458C692.855 315.37 687.206 315.355 682.675 315.892C681.386 316.045 680.077 316.2 678.654 316.506C666.759 321.173 657.432 317.629 651.359 314.4C637.659 307.115 631.956 299.048 626.086 290.744C623.541 287.145 620.965 283.502 617.693 279.858C616.668 278.717 615.531 277.802 614.292 277.079C613.834 278.58 613.291 280.138 612.734 281.736C610.483 288.191 607.998 295.317 609.969 302.14C611.445 309.203 614.673 313.905 616.816 317.027C618.485 319.458 619.497 320.931 618.513 321.816C614.249 325.648 588.43 354.006 574.571 383.619C574.48 383.813 574.354 383.98 574.198 384.124C577.899 384.89 584.034 385.313 586.946 384.729C589.56 384.205 591.083 385.247 591.718 386.824C593.141 387.411 594.761 388.467 595.946 390.036C597.118 391.588 596.598 391.571 595.213 391.525C594.215 391.491 592.768 391.443 591.181 391.957C590.244 393.375 588.57 394.108 586.173 392.969C582.971 391.449 573.101 388.619 570.948 389.456C570.376 389.678 569.813 389.803 569.301 389.796C568.865 390.034 568.329 390.187 567.742 390.265C565.454 390.57 558.161 397.812 556.085 400.689C554.53 402.843 552.711 403.008 551.209 402.217C549.571 402.532 548.326 403.272 547.467 403.783C546.275 404.492 545.828 404.758 546.11 402.832C546.395 400.885 547.307 399.178 548.272 397.977C548.072 396.288 548.906 394.64 551.449 393.839C554.255 392.955 559.356 389.68 562.249 387.231C558.423 386.908 551.79 387.506 549.15 388.148C546.572 388.775 545.082 387.716 544.452 386.137C543.002 385.311 541.575 385.064 540.591 384.893C539.226 384.657 538.713 384.568 540.175 383.287C541.653 381.992 543.454 381.287 544.965 381.002C545.907 379.587 547.61 378.876 550.062 379.921C552.415 380.924 557.259 381.681 560.972 381.875C558.149 379.582 554.544 377.169 552.693 376.255C550.312 375.081 549.845 373.311 550.372 371.694C549.787 370.129 548.849 369.023 548.203 368.26C547.306 367.202 546.969 366.805 548.911 366.76C550.874 366.715 552.707 367.33 554.05 368.082C555.677 367.601 557.439 368.148 558.654 370.526C560.063 373.284 564.498 378.107 567.403 380.447C569.206 377.077 571.389 371.855 573.781 366.133C578.169 355.638 583.26 343.459 588.003 337.941C579.24 331.291 564.733 320.155 561.286 298.674C558.824 308.108 557.256 318.213 557.944 326.983L558.023 327.532C558.152 328.192 558.403 328.984 558.645 329.746C559.165 331.388 559.64 332.889 558.756 332.626C548.937 328.83 530.909 323.427 519.152 321.829C521.154 324.21 523.701 326.748 525.407 327.804C527.454 329.071 527.819 330.7 527.269 332.134C527.848 333.4 528.267 335.098 528.085 336.866C527.904 338.614 527.572 338.282 526.686 337.396C526.048 336.758 525.122 335.832 523.758 335.191C522.267 335.549 520.712 335 519.829 332.767C518.65 329.786 513.872 321.822 511.937 321.045C511.66 320.934 511.403 320.806 511.172 320.662C510.781 320.694 510.351 320.655 509.907 320.559C507.87 320.118 499.463 324.038 496.821 325.847C494.843 327.203 493.247 326.785 492.211 325.653C490.723 325.419 489.439 325.667 488.553 325.838C487.325 326.075 486.863 326.164 487.69 324.614C488.526 323.046 489.822 321.875 491.008 321.15C491.353 319.653 492.565 318.508 494.97 318.606C497.498 318.709 502.458 317.606 505.694 316.468C503.478 314.88 495.594 312.904 492.65 312.651C490.263 312.445 489.29 311.11 489.204 309.577C488.199 308.452 487.048 307.829 486.254 307.4C485.153 306.805 484.74 306.581 486.359 305.905C487.996 305.221 489.74 305.136 491.116 305.327C492.328 304.387 493.989 304.269 495.79 305.87C498.093 307.917 504.312 310.867 507.315 311.6C505.659 308.562 503.024 304.8 501.616 303.286C499.983 301.529 500.155 299.885 501.117 298.689C501.125 297.18 500.688 295.944 500.386 295.093C499.968 293.911 499.811 293.467 501.465 294.054C503.136 294.647 504.486 295.756 505.379 296.823C506.908 296.94 508.219 297.969 508.483 300.367C508.874 303.922 512.358 311.915 513.945 313.27C514.103 313.405 514.25 313.545 514.383 313.689C522.39 312.326 527.439 312.502 535.246 312.773L535.266 312.773L535.276 312.774L535.281 312.774C536.779 312.826 538.379 312.881 540.12 312.93C532.73 310.215 520.083 299.972 525.778 281.765C527.235 277.109 530.074 272.919 533.533 269.468C529.571 267.779 525.557 265.876 521.619 263.807C521.633 264.649 521.582 265.494 521.445 266.319C516.958 263.438 514.446 261.03 512.824 258.823L512.671 258.729C512.843 260.173 512.866 261.669 512.628 263.105C505.968 258.83 503.659 255.595 502.153 252.515C489.69 255.32 473.58 259.505 460.455 267.216C460.436 267.227 460.417 267.238 460.398 267.249C463.553 268.811 468.188 270.495 470.684 270.731C473.157 270.965 474.238 272.304 474.384 273.883C475.497 274.789 476.661 276.167 477.299 277.886C477.93 279.586 477.47 279.431 476.247 279.018C475.365 278.72 474.085 278.288 472.531 278.321C471.316 279.335 469.626 279.54 467.79 277.88C465.338 275.662 457.283 270.485 455.137 270.654C454.567 270.699 454.031 270.659 453.576 270.516C453.123 270.61 452.603 270.603 452.059 270.516C449.934 270.173 441.487 274.679 438.864 276.69C436.9 278.196 435.232 277.855 434.102 276.745C432.556 276.586 431.246 276.913 430.342 277.138C429.089 277.45 428.619 277.568 429.386 275.924C430.161 274.263 431.432 272.983 432.614 272.171C432.887 270.609 434.073 269.362 436.557 269.33C439.298 269.294 444.729 267.741 447.966 266.331C444.637 265.016 438.555 263.767 436.027 263.632C433.557 263.499 432.51 262.154 432.37 260.575C431.297 259.448 430.089 258.844 429.256 258.427C428.1 257.85 427.666 257.633 429.314 256.882C430.98 256.122 432.776 255.977 434.202 256.128C435.421 255.118 437.131 254.941 439.041 256.532C440.874 258.06 444.995 260.037 448.258 261.207C446.352 258.402 443.779 255.279 442.37 253.966C440.559 252.278 440.615 250.573 441.517 249.271C441.414 247.717 440.873 246.477 440.499 245.623C439.982 244.437 439.787 243.992 441.533 244.474C443.298 244.96 444.769 246.002 445.767 247.033C447.349 247.041 448.775 248.003 449.224 250.452C449.766 253.411 452.64 259.251 454.623 262.003C459.854 257.086 475.479 246.801 488.638 238.383C486.367 235.26 484.805 232.138 484.161 229.095C482.475 228.776 480.333 229.642 478.217 230.992C479.967 211.663 469.472 191.154 456.332 176.252C455.753 179.821 455.513 185.023 456.058 187.586C456.587 190.073 455.615 191.539 454.125 192.164C453.584 193.528 452.6 195.086 451.123 196.236C449.662 197.373 449.673 196.876 449.7 195.555C449.72 194.602 449.748 193.22 449.241 191.712C447.883 190.835 447.166 189.247 448.219 186.946C449.626 183.873 452.196 174.421 451.376 172.377C451.357 172.33 451.338 172.283 451.321 172.236C450.777 171.933 450.314 171.364 449.953 170.656C448.951 168.695 440.145 164.441 436.907 163.49C434.483 162.778 433.756 161.194 433.987 159.591C433.183 158.219 432.124 157.334 431.393 156.724C430.379 155.879 429.999 155.561 431.813 155.201C433.647 154.838 435.467 155.115 436.849 155.601C438.298 154.883 440.039 155.109 441.566 157.14C443.109 159.194 447.065 162.344 450.112 164.258C448.775 160.792 445.924 155.752 444.427 153.821C442.877 151.821 443.212 150.111 444.335 148.947C444.485 147.362 444.142 146.024 443.906 145.101C443.578 143.82 443.454 143.339 445.136 144.112C446.835 144.893 448.149 146.184 448.986 147.388C450.58 147.656 451.861 148.86 451.912 151.403C451.973 154.367 453.782 160.391 455.301 163.596C456.04 159.952 456.374 154.299 456.171 151.897C455.956 149.374 457.167 148.123 458.741 147.758C459.728 146.511 460.167 145.201 460.471 144.298C460.891 143.045 461.049 142.574 462.039 144.139C463.041 145.722 463.441 147.522 463.489 148.989C464.681 150.083 465.101 151.792 463.763 153.953C461.779 157.158 459.48 166.06 459.916 168.219C459.978 168.527 460.014 168.829 460.021 169.116C466.15 173.708 478.749 188.594 488.87 200.553L490.054 201.952C492.993 196.895 496.668 192.746 500.388 189.143C499.403 189.144 498.414 189.061 497.457 188.86C503.049 180.86 506.794 179.41 510.615 177.931C511.82 177.465 513.032 176.996 514.312 176.317C517.638 172.64 519.373 169.038 517.928 164.678C516.008 162.051 514.975 159.842 514.051 157.867C512.22 153.953 510.818 150.955 503.8 147.438C498.312 144.689 494.167 142.656 491.508 142.153C491.095 142.075 490.686 141.998 490.255 141.905C488.525 141.533 483.843 137.511 485.045 130.683C488.804 135.078 492.729 135.562 498.756 136.723C500.079 136.886 501.464 137.057 502.927 137.324C507.206 138.103 509.635 137.692 509.635 137.692C509.635 137.692 506.039 131.584 500.84 129.231C500.409 129.036 499.994 128.848 499.595 128.667C491.539 125.008 489.55 124.105 481.531 126.018C481.531 120.395 484.832 116.763 487.366 115.492C491.38 113.481 495.137 114.443 498.897 115.406C503.155 116.497 507.417 117.588 512.061 114.366C517.272 110.751 521.52 110.246 531.123 113.175C533.279 113.833 535.287 114.551 537.161 115.324C540.762 111.943 544.207 107.316 544.207 99.0977C549.123 104.799 553.593 111.329 553.593 119.272C553.593 119.641 553.591 120.002 553.589 120.355C555.132 119.266 556.601 118.4 557.954 117.604C560.521 116.092 562.67 114.828 564.106 112.742C566.294 109.564 567.299 107.773 568.123 106.304C568.758 105.173 569.286 104.232 570.164 102.996C573.799 113.96 574.606 126.143 568.952 133.859C566.771 136.835 564.092 138.762 561.494 139.989C562.376 141.555 563.02 143.541 563.471 145.854C564.27 148.097 565.287 149.707 566.295 151.303C568.5 154.797 570.662 158.219 570.397 168.05C567.924 166.908 565.793 164.895 564.192 163.016C564.166 163.553 564.138 164.094 564.107 164.639C564.441 168.352 565.491 170.669 566.529 172.957C568.235 176.721 569.907 180.408 568.299 190.109C565.945 188.599 564.074 186.23 562.737 184.105C563.017 185.356 563.381 186.471 563.744 187.581C565.029 191.509 566.287 195.358 563.628 204.824C562.03 203.532 560.769 203.849 559.797 204.84C568.363 215.462 579.559 204.675 582.203 196.996C583.51 193.199 582.672 189.634 581.721 185.587C580.227 179.23 578.454 171.683 584.273 160.179C587.53 153.742 596.693 145.739 607.592 136.221C628.566 117.904 655.966 93.9748 660.053 64.7916C667.921 88.2202 659.225 113.741 652.599 121.69C659.276 117.942 664.624 109.159 671.023 98.6487L671.024 98.6473C671.769 97.4245 672.528 96.1784 673.304 94.9141C675.612 111.493 673.157 122.619 668.593 130.773C696.272 118.291 725.338 103.179 735.936 81.165C740.087 115.039 717.021 133.136 699.952 141.024C709.64 141.024 727.632 135.456 735.936 124.783C735.936 151.233 705.488 168.866 688.88 171.186C696.261 173.506 718.866 175.362 729.016 165.154C721.417 188.01 692.57 199.956 676.885 198.564C680.576 203.204 687.034 205.524 698.106 204.596C691.648 219.909 663.968 222.229 650.128 219.445C650.128 224.549 656.587 230.582 663.507 230.118C661.661 234.758 650.128 238.006 636.749 231.974C636.288 236.15 641.363 238.934 649.205 243.11C641.363 246.358 627.984 247.287 621.987 241.254C621.064 245.894 625.216 250.071 628.445 252.391C621.987 254.247 608.147 250.999 602.15 244.038C602.15 248.859 605.501 251.776 609.336 254.6ZM522.743 122.52C522.407 122.619 522.087 122.713 521.778 122.784C522.962 123.344 523.758 124.381 524.549 125.411C526.256 127.636 527.938 129.828 533.448 127.114C528.349 120.868 525.164 121.807 522.743 122.52Z" fill="#CAA74D"/>
</svg>
