<svg width="140" height="80" viewBox="0 0 140 80" fill="none" xmlns="http://www.w3.org/2000/svg">
<path d="M43.8751 48.32C43.2026 48.4067 42.4983 48.4511 41.7648 48.4511C41.0149 48.4511 40.3395 48.4041 39.725 48.3271L40.741 45.3422C41.0975 45.3718 41.4394 45.3848 41.7648 45.3848C42.1206 45.3848 42.4665 45.3704 42.8017 45.3424L41.4791 41.6732L39.1252 48.2398L39.1238 48.2396L33.1121 65H31.2201L23.3156 39.4536C22.727 37.4853 22.0122 36.6058 20.6667 36.0195L20.7088 35.6845H27.0576L27.0996 36.0195C26.0485 36.5639 25.7962 37.3178 26.469 39.5374L32.3132 59.1788L36.4267 47.5699L36.2863 47.5268C35.3742 47.2463 34.6086 47.0109 33.8354 47.0109C33.3223 47.0109 32.7626 47.1038 32.2495 47.429L31.9696 47.3361L30.1505 39.8096L30.5237 39.6702C32.9092 42.3667 35.3101 43.8512 37.4698 44.6262L40.6382 35.6845H42.5302L45.6958 44.6638C47.9838 43.6994 49.3211 41.835 49.3211 39.4844C49.3211 35.7211 46.0094 34.2344 42.6511 33.3517L39.1994 32.4225C35.1881 31.3074 30.9435 29.1703 30.9435 23.7345C30.9435 18.438 35.0015 15 41.1585 15C43.4384 15 45.0576 15.5158 46.2923 15.9091C47.0532 16.1515 47.6681 16.3473 48.2017 16.3473C48.5748 16.3473 48.8547 16.2544 49.1812 15.9757L49.4611 16.0221L50.8604 22.8517L50.4872 22.9911C48.0617 19.7854 44.7034 18.0199 41.0185 18.0199C37.0072 18.0199 34.2085 20.1106 34.2085 23.5022C34.2085 27.126 37.3803 28.1946 40.9252 29.2167L44.3769 30.1924C48.9946 31.5397 52.6328 33.8627 52.6328 39.1591C52.6328 43.2354 50.4376 46.2544 46.7411 47.6286C45.8695 47.9517 44.9042 48.1873 43.8751 48.32Z" fill="#353943"/>
<path d="M44.0634 48.8422L49.8881 65H51.7801L59.6846 39.4536C60.2732 37.4853 60.988 36.6058 62.3334 36.0195L62.2914 35.6845H56.0687L56.0267 36.0195C57.0357 36.5639 57.288 37.3178 56.6153 39.5374L50.8131 59.1788L46.9195 48.1346C46.093 48.4806 45.1038 48.7112 44.0634 48.8422Z" fill="#353943"/>
<path fill-rule="evenodd" clip-rule="evenodd" d="M102.861 43.6464C103.153 43.8146 103.448 43.986 103.745 44.161C105.759 45.3488 106.979 47.3965 108.101 49.2818C109.098 50.9549 110.018 52.5001 111.35 53.2028C113.847 54.5195 115.537 54.2252 117.772 51.0357C120.232 47.5237 115.609 46.9259 114.416 50.3632C114.192 45.805 117.175 44.6094 119.412 46.1786C119.396 46.0882 119.382 45.9973 119.371 45.9061C119.288 45.5223 119.16 45.2235 119.034 44.9272C118.731 44.2203 118.435 43.5276 118.773 41.7297C119.3 42.0837 119.687 42.6719 119.927 43.1228C120.36 42.4273 121.031 41.8967 121.947 41.6951C125.004 41.0226 127.39 43.8622 126.719 47.0006C124.729 43.7524 122.782 44.285 122.135 46.2124C122.537 45.9626 123.056 45.712 123.585 45.6532C123.075 47.3399 122.515 47.8442 121.944 48.3139C121.945 48.3245 121.946 48.3351 121.947 48.3456C123.066 47.5984 125.899 50.2885 123.588 52.9039C123.066 49.9896 120.779 51.1945 119.039 52.9039C118.906 53.0344 118.774 53.1591 118.644 53.2783C118.992 53.3207 119.355 53.4071 119.675 53.569C118.148 54.8548 117.348 54.9496 116.505 55.0496C116.265 55.0781 116.022 55.1069 115.757 55.1638C113.544 56.0321 111.809 55.3727 110.679 54.772C108.13 53.4166 107.069 51.9158 105.977 50.371C105.504 49.7014 105.024 49.0235 104.416 48.3456C104.225 48.1333 104.013 47.9632 103.783 47.8286C103.698 48.1079 103.597 48.3976 103.493 48.695C103.074 49.8959 102.612 51.2218 102.979 52.4911C103.253 53.8051 103.854 54.6799 104.253 55.2608C104.563 55.713 104.751 55.9872 104.568 56.1517C103.775 56.8647 98.9714 62.1405 96.3928 67.65C96.376 67.686 96.3525 67.7172 96.3235 67.7438C97.0121 67.8863 98.1536 67.9651 98.6953 67.8564C99.1815 67.7589 99.4649 67.9528 99.5831 68.2462C99.8478 68.3554 100.149 68.552 100.37 68.8439C100.588 69.1327 100.491 69.1294 100.233 69.1208C100.048 69.1146 99.7783 69.1056 99.4831 69.2012C99.3088 69.465 98.9975 69.6014 98.5514 69.3896C97.9557 69.1067 96.1194 68.5803 95.7189 68.7359C95.6125 68.7772 95.5077 68.8005 95.4125 68.7992C95.3313 68.8434 95.2316 68.8719 95.1225 68.8865C94.6967 68.9433 93.3399 70.2904 92.9536 70.8257C92.6644 71.2266 92.326 71.2572 92.0465 71.11C91.7418 71.1686 91.5101 71.3064 91.3503 71.4014C91.1286 71.5332 91.0454 71.5827 91.0978 71.2244C91.1509 70.8622 91.3206 70.5446 91.5001 70.3212C91.4629 70.007 91.6181 69.7003 92.0911 69.5513C92.6131 69.3869 93.5623 68.7776 94.1004 68.3219C93.3887 68.2619 92.1546 68.3731 91.6634 68.4925C91.1837 68.6092 90.9065 68.4123 90.7893 68.1185C90.5196 67.9648 90.2541 67.9188 90.071 67.887C89.8171 67.8431 89.7217 67.8265 89.9937 67.5882C90.2687 67.3472 90.6036 67.2161 90.8849 67.163C91.0601 66.8998 91.3769 66.7676 91.8332 66.962C92.2709 67.1486 93.172 67.2895 93.8629 67.3255C93.3377 66.8989 92.6671 66.4499 92.3226 66.28C91.8797 66.0615 91.7928 65.7323 91.8907 65.4314C91.7819 65.1403 91.6075 64.9345 91.4872 64.7925C91.3204 64.5957 91.2577 64.5218 91.619 64.5135C91.9842 64.505 92.3252 64.6195 92.575 64.7593C92.8778 64.6698 93.2056 64.7717 93.4315 65.214C93.6937 65.7272 94.5189 66.6244 95.0593 67.0598C95.3949 66.4329 95.801 65.4614 96.246 64.3968C97.0622 62.4441 98.0094 60.1783 98.892 59.1518C97.2616 57.9146 94.5626 55.8426 93.9212 51.8463C93.4633 53.6013 93.1715 55.4814 93.2996 57.113L93.3143 57.2152C93.3382 57.3379 93.385 57.4853 93.4299 57.6272C93.5266 57.9325 93.6151 58.2118 93.4507 58.1629C91.6237 57.4567 88.2698 56.4514 86.0824 56.1542C86.4548 56.5971 86.9288 57.0694 87.2461 57.2657C87.6271 57.5016 87.6949 57.8046 87.5926 58.0714C87.7002 58.3069 87.7783 58.6228 87.7444 58.9517C87.7108 59.277 87.6489 59.2151 87.4841 59.0504C87.3653 58.9316 87.193 58.7593 86.9393 58.6401C86.662 58.7067 86.3726 58.6045 86.2083 58.1891C85.989 57.6345 85.1001 56.1529 84.7401 56.0083C84.6886 55.9877 84.6407 55.9639 84.5977 55.937C84.5249 55.943 84.4451 55.9358 84.3625 55.9179C83.9834 55.8357 82.4194 56.5651 81.9279 56.9018C81.5598 57.1539 81.2628 57.0763 81.0702 56.8656C80.7934 56.8221 80.5544 56.8682 80.3896 56.9C80.1611 56.9441 80.0752 56.9607 80.2291 56.6723C80.3846 56.3807 80.6257 56.1627 80.8464 56.0278C80.9106 55.7494 81.136 55.5363 81.5835 55.5545C82.0538 55.5737 82.9766 55.3685 83.5785 55.1567C83.1664 54.8613 81.6995 54.4937 81.1519 54.4466C80.7077 54.4084 80.5268 54.1599 80.5106 53.8746C80.3238 53.6654 80.1096 53.5496 79.9619 53.4697C79.7571 53.3589 79.6802 53.3173 79.9814 53.1915C80.286 53.0644 80.6103 53.0485 80.8664 53.084C81.0919 52.9091 81.401 52.8871 81.736 53.185C82.1644 53.566 83.3215 54.1147 83.8802 54.251C83.572 53.6859 83.0818 52.9861 82.8199 52.7043C82.516 52.3774 82.5481 52.0715 82.7271 51.8491C82.7285 51.5683 82.6472 51.3384 82.5911 51.1799C82.5133 50.9601 82.4841 50.8775 82.7917 50.9867C83.1027 51.0971 83.3539 51.3034 83.5201 51.5018C83.8044 51.5237 84.0484 51.7151 84.0975 52.1612C84.1703 52.8227 84.8185 54.3096 85.1137 54.5618C85.1431 54.587 85.1705 54.613 85.1952 54.6398C86.6848 54.3862 87.6242 54.4188 89.0767 54.4693L89.0804 54.4694L89.0822 54.4695L89.0831 54.4695C89.3618 54.4792 89.6594 54.4895 89.9835 54.4986C88.6085 53.9934 86.2556 52.0877 87.3152 48.7004C87.5862 47.8341 88.1144 47.0546 88.7579 46.4126C88.0208 46.0984 87.2741 45.7444 86.5413 45.3593C86.5439 45.5161 86.5345 45.6732 86.509 45.8266C85.6743 45.2908 85.207 44.8427 84.9051 44.4321L84.8767 44.4147C84.9087 44.6833 84.913 44.9615 84.8686 45.2288C83.6297 44.4334 83.2001 43.8315 82.9198 43.2585C80.6011 43.7804 77.6038 44.5589 75.162 45.9936C75.1585 45.9957 75.155 45.9977 75.1514 45.9997C75.7383 46.2903 76.6007 46.6036 77.0651 46.6475C77.5253 46.691 77.7264 46.9402 77.7535 47.2339C77.9605 47.4025 78.177 47.6589 78.2958 47.9787C78.4132 48.2951 78.3277 48.2662 78.1001 48.1893C77.9359 48.1339 77.6979 48.0536 77.4088 48.0596C77.1826 48.2484 76.8682 48.2865 76.5266 47.9776C76.0705 47.565 74.5718 46.6018 74.1727 46.6332C74.0666 46.6415 73.9669 46.6342 73.8823 46.6075C73.7979 46.6251 73.7013 46.6238 73.6 46.6075C73.2047 46.5438 71.6331 47.3821 71.1451 47.7563C70.7797 48.0365 70.4693 47.9729 70.2592 47.7664C69.9715 47.7369 69.7278 47.7977 69.5597 47.8396C69.3266 47.8977 69.2391 47.9195 69.3817 47.6137C69.5259 47.3046 69.7624 47.0666 69.9824 46.9154C70.0332 46.6249 70.2538 46.3928 70.7159 46.3868C71.2259 46.3802 72.2362 46.0912 72.8385 45.8289C72.2192 45.5842 71.0876 45.352 70.6172 45.3267C70.1578 45.302 69.9629 45.0518 69.9369 44.758C69.7372 44.5484 69.5125 44.436 69.3575 44.3585C69.1425 44.251 69.0618 44.2107 69.3684 44.0709C69.6784 43.9297 70.0124 43.9026 70.2777 43.9307C70.5046 43.7428 70.8227 43.7098 71.1781 44.006C71.519 44.2901 72.2857 44.6579 72.8929 44.8756C72.5381 44.3537 72.0595 43.7727 71.7974 43.5285C71.4605 43.2145 71.4709 42.8973 71.6387 42.655C71.6195 42.3658 71.5188 42.1352 71.4494 41.9762C71.3531 41.7557 71.3169 41.6728 71.6416 41.7624C71.97 41.853 72.2438 42.0467 72.4294 42.2387C72.7237 42.2401 72.989 42.4191 73.0725 42.8747C73.1733 43.4252 73.708 44.5117 74.077 45.0237C75.0502 44.109 77.9571 42.1955 80.4054 40.6293C79.9828 40.0483 79.6923 39.4674 79.5724 38.9013C79.2587 38.8421 78.8603 39.003 78.4666 39.2543C78.7922 35.6582 76.8396 31.8425 74.395 29.0701C74.2872 29.7341 74.2425 30.7019 74.344 31.1786C74.4425 31.6414 74.2616 31.9141 73.9843 32.0304C73.8837 32.2842 73.7006 32.5742 73.4258 32.788C73.1541 32.9995 73.156 32.9072 73.1611 32.6613C73.1648 32.484 73.1701 32.227 73.0758 31.9464C72.823 31.7833 72.6897 31.4878 72.8856 31.0596C73.1473 30.4879 73.6254 28.7294 73.4728 28.3491C73.4693 28.3404 73.4659 28.3316 73.4627 28.3229C73.3615 28.2666 73.2754 28.1606 73.2081 28.0289C73.0217 27.6641 71.3834 26.8727 70.7811 26.6958C70.33 26.5632 70.1949 26.2686 70.2377 25.9704C70.0882 25.715 69.8911 25.5505 69.7551 25.437C69.5665 25.2797 69.4957 25.2206 69.8333 25.1537C70.1745 25.086 70.513 25.1376 70.7702 25.2279C71.0397 25.0944 71.3638 25.1364 71.6478 25.5144C71.935 25.8966 72.6708 26.4825 73.2378 26.8386C72.989 26.1938 72.4586 25.2561 72.1801 24.8968C71.8917 24.5248 71.9541 24.2067 72.163 23.99C72.1909 23.6952 72.1271 23.4462 72.0831 23.2744C72.0221 23.0362 71.9991 22.9468 72.3119 23.0905C72.6281 23.2358 72.8725 23.4761 73.0283 23.7001C73.3248 23.7499 73.5631 23.974 73.5727 24.447C73.5839 24.9985 73.9206 26.1191 74.2032 26.7155C74.3406 26.0375 74.4028 24.9857 74.3649 24.5389C74.3251 24.0695 74.5503 23.8367 74.8432 23.7689C75.0267 23.5369 75.1085 23.2932 75.1649 23.1251C75.2431 22.892 75.2725 22.8045 75.4568 23.0956C75.6431 23.39 75.7176 23.7249 75.7265 23.9979C75.9482 24.2014 76.0264 24.5194 75.7774 24.9214C75.4083 25.5176 74.9806 27.1738 75.0617 27.5755C75.0733 27.6329 75.0801 27.689 75.0813 27.7425C76.2216 28.5967 78.5655 31.3662 80.4486 33.5911L80.6689 33.8514C81.2157 32.9106 81.8993 32.1387 82.5915 31.4683C82.4082 31.4686 82.2242 31.4531 82.0461 31.4157C83.0865 29.9273 83.7832 29.6577 84.4942 29.3824C84.7183 29.2957 84.9439 29.2084 85.182 29.0822C85.8007 28.398 86.1234 27.7279 85.8547 26.9167C85.4976 26.428 85.3053 26.017 85.1334 25.6495C84.7928 24.9213 84.532 24.3637 83.2261 23.7093C81.4189 22.8038 80.8966 22.7051 80.4019 22.6117C80.3251 22.5972 80.249 22.5828 80.1689 22.5656C79.8469 22.4963 78.9758 21.748 79.1995 20.4777C79.8988 21.2953 80.6291 21.3855 81.5094 21.4942C81.7554 21.5246 82.0132 21.5564 82.2853 21.606C83.0814 21.7511 84.3117 21.8961 84.3117 21.8961C84.3117 21.8961 82.8643 20.5382 81.897 20.1005C81.8169 20.0642 81.7398 20.0292 81.6655 19.9954C80.1666 19.3147 79.7966 19.1467 78.3047 19.5027C78.3047 18.4565 78.9188 17.7807 79.3903 17.5444C80.1371 17.1702 80.836 17.3492 81.5356 17.5284C82.3278 17.7312 83.1208 17.9343 83.9848 17.3348C84.9541 16.6623 86.523 16.7899 88.3096 17.3348C88.7107 17.4572 89.0843 17.5907 89.4328 17.7347C90.103 17.1056 90.7438 16.2447 90.7438 14.7158C91.6584 15.7765 92.49 16.9914 92.49 18.4691C92.49 18.5378 92.4897 18.605 92.4892 18.6707C92.7763 18.4679 93.0497 18.307 93.3014 18.1588C93.779 17.8776 94.1787 17.6423 94.4459 17.2543C94.853 16.663 95.0399 16.3298 95.1933 16.0564C95.3114 15.846 95.4096 15.6711 95.573 15.4411C96.2492 17.4809 96.3995 19.7475 95.3475 21.1829C94.9418 21.7366 94.4434 22.0952 93.9601 22.3235C94.124 22.6149 94.2439 22.9843 94.3278 23.4146C94.4765 23.8319 94.6657 24.1316 94.8532 24.4285C95.2635 25.0784 95.6656 25.7152 95.6163 27.5441C95.1562 27.3316 94.7598 26.9572 94.4619 26.6076C94.4572 26.7075 94.4519 26.8082 94.4462 26.9095C94.5082 27.6003 94.7036 28.0313 94.8967 28.4571C95.2142 29.1573 95.5252 29.8433 95.226 31.6482C94.7881 31.3672 94.44 30.9264 94.1913 30.5311C94.2433 30.7638 94.3111 30.9714 94.3786 31.1778C94.6176 31.9086 94.8518 32.6247 94.3569 34.3858C94.0598 34.1454 93.825 34.2044 93.6443 34.3887C95.238 36.3649 97.3209 34.3581 97.8128 32.9293C98.056 32.2231 97.9001 31.5598 97.7232 30.8068C97.4453 29.6241 97.1153 28.2199 98.198 26.0798C98.8039 24.8821 100.509 23.3932 102.536 21.6225C106.438 18.2146 111.536 13.7627 112.297 8.33325C113.76 12.6921 112.143 17.44 110.91 18.9189C112.152 18.2217 113.147 16.5877 114.338 14.6322L114.338 14.632C114.476 14.4045 114.617 14.1726 114.762 13.9374C115.191 17.0219 114.734 19.0918 113.885 20.6089C119.035 18.2866 124.443 15.475 126.414 11.3795C127.187 17.6816 122.895 21.0485 119.72 22.5161C121.522 22.5161 124.869 21.4801 126.414 19.4945C126.414 24.4154 120.75 27.6959 117.66 28.1276C119.033 28.5592 123.239 28.9046 125.127 27.0053C123.713 31.2577 118.346 33.4801 115.428 33.2211C116.115 34.0844 117.316 34.516 119.376 34.3434C118.175 37.1923 113.025 37.6239 110.45 37.106C110.45 38.0556 111.652 39.1779 112.939 39.0916C112.596 39.9549 110.45 40.5592 107.961 39.4369C107.875 40.2139 108.819 40.7318 110.278 41.5088C108.819 42.1131 106.33 42.2858 105.214 41.1635C105.043 42.0268 105.815 42.8038 106.416 43.2354C105.214 43.5807 102.64 42.9764 101.524 41.6815C101.524 42.5783 102.147 43.121 102.861 43.6464ZM86.7504 19.0734C86.688 19.0918 86.6284 19.1094 86.5709 19.1225C86.7913 19.2266 86.9394 19.4196 87.0865 19.6114C87.4041 20.0252 87.717 20.433 88.742 19.928C87.7936 18.7661 87.2008 18.9407 86.7504 19.0734Z" fill="#CAA74D"/>
</svg>
