<svg width="140" height="80" viewBox="0 0 140 80" fill="none" xmlns="http://www.w3.org/2000/svg">
<path d="M42.2084 48.32C41.5358 48.4067 40.8315 48.4511 40.0981 48.4511C39.3481 48.4511 38.6728 48.4041 38.0582 48.3271L39.0742 45.3422C39.4308 45.3718 39.7727 45.3848 40.0981 45.3848C40.4539 45.3848 40.7997 45.3704 41.135 45.3424L39.8123 41.6732L37.4584 48.2398L37.457 48.2396L31.4453 65H29.5533L21.6488 39.4536C21.0602 37.4853 20.3454 36.6058 19 36.0195L19.042 35.6845H25.3909L25.4329 36.0195C24.3818 36.5639 24.1295 37.3178 24.8022 39.5374L30.6465 59.1788L34.7599 47.5699L34.6195 47.5268C33.7074 47.2463 32.9419 47.0109 32.1686 47.0109C31.6556 47.0109 31.0958 47.1038 30.5828 47.429L30.3029 47.3361L28.4838 39.8096L28.8569 39.6702C31.2425 42.3667 33.6434 43.8512 35.803 44.6262L38.9714 35.6845H40.8634L44.0291 44.6638C46.3171 43.6994 47.6544 41.835 47.6544 39.4844C47.6544 35.7211 44.3427 34.2344 40.9843 33.3517L37.5327 32.4225C33.5213 31.3074 29.2767 29.1703 29.2767 23.7345C29.2767 18.438 33.3347 15 39.4917 15C41.7716 15 43.3908 15.5158 44.6256 15.9091C45.3865 16.1515 46.0014 16.3473 46.5349 16.3473C46.9081 16.3473 47.1879 16.2544 47.5144 15.9757L47.7943 16.0221L49.1936 22.8517L48.8205 22.9911C46.395 19.7854 43.0366 18.0199 39.3518 18.0199C35.3404 18.0199 32.5418 20.1106 32.5418 23.5022C32.5418 27.126 35.7136 28.1946 39.2585 29.2167L42.7101 30.1924C47.3279 31.5397 50.9661 33.8627 50.9661 39.1591C50.9661 43.2354 48.7709 46.2544 45.0743 47.6286C44.2027 47.9517 43.2374 48.1873 42.2084 48.32Z" fill="#353943"/>
<path d="M42.3967 48.8422L48.2213 65H50.1134L58.0178 39.4536C58.6065 37.4853 59.3212 36.6058 60.6667 36.0195L60.6246 35.6845H54.402L54.3599 36.0195C55.369 36.5639 55.6213 37.3178 54.9485 39.5374L49.1463 59.1788L45.2527 48.1346C44.4262 48.4806 43.4371 48.7112 42.3967 48.8422Z" fill="#353943"/>
<path fill-rule="evenodd" clip-rule="evenodd" d="M100.757 42.3269C101.01 42.4726 101.266 42.6212 101.523 42.7729C103.269 43.8023 104.326 45.577 105.299 47.2109C106.163 48.6609 106.96 50.0001 108.115 50.6091C110.278 51.7503 111.743 51.4952 113.68 48.731C115.813 45.6872 111.806 45.1691 110.772 48.1481C110.578 44.1977 113.163 43.1615 115.102 44.5215C115.087 44.4431 115.076 44.3643 115.066 44.2853C114.994 43.9527 114.884 43.6937 114.774 43.4369C114.512 42.8242 114.255 42.2239 114.548 40.6657C115.004 40.9725 115.34 41.4824 115.548 41.8731C115.923 41.2704 116.505 40.8105 117.299 40.6358C119.948 40.0529 122.016 42.5139 121.435 45.2339C119.71 42.4188 118.023 42.8804 117.462 44.5507C117.81 44.3343 118.26 44.117 118.719 44.0662C118.276 45.528 117.791 45.965 117.296 46.3721C117.297 46.3812 117.298 46.3904 117.299 46.3996C118.268 45.752 120.724 48.0834 118.721 50.35C118.268 47.8243 116.286 48.8686 114.779 50.35C114.663 50.4632 114.549 50.5713 114.436 50.6746C114.737 50.7113 115.271 50.8708 115.548 51.0111C114.224 52.1254 113.313 52.123 112.583 52.2097C112.375 52.2343 112.164 52.2594 111.934 52.3087C110.016 53.0612 108.512 52.4897 107.533 51.9691C105.324 50.7944 104.405 49.4937 103.458 48.1549C103.048 47.5745 102.632 46.9871 102.105 46.3996C101.94 46.2155 101.756 46.0681 101.556 45.9514C101.483 46.1935 101.395 46.4446 101.305 46.7024C100.942 47.7431 100.542 48.8922 100.859 49.9923C101.097 51.1311 101.618 51.8892 101.964 52.3927C102.233 52.7847 102.396 53.0222 102.237 53.1649C101.55 53.7828 97.3866 58.3552 95.1518 63.1301C95.1372 63.1612 95.1169 63.1882 95.0917 63.2113C95.6885 63.3348 96.6778 63.4031 97.1473 63.3089C97.5687 63.2244 97.8142 63.3925 97.9167 63.6467C98.1461 63.7414 98.4073 63.9117 98.5983 64.1647C98.7873 64.415 98.7035 64.4122 98.4803 64.4047C98.3193 64.3993 98.0859 64.3915 97.83 64.4744C97.679 64.7031 97.4092 64.8213 97.0226 64.6376C96.5063 64.3925 94.9148 63.9362 94.5678 64.0711C94.4755 64.1069 94.3847 64.1271 94.3022 64.126C94.2318 64.1643 94.1454 64.189 94.0508 64.2016C93.6819 64.2508 92.5059 65.4184 92.1712 65.8823C91.9205 66.2297 91.6272 66.2563 91.385 66.1287C91.1209 66.1795 90.9201 66.2989 90.7816 66.3813C90.5895 66.4955 90.5174 66.5384 90.5628 66.2279C90.6088 65.9139 90.7559 65.6386 90.9115 65.4451C90.8792 65.1727 91.0137 64.9069 91.4237 64.7778C91.8761 64.6353 92.6987 64.1073 93.1651 63.7123C92.5482 63.6603 91.4786 63.7567 91.053 63.8602C90.6373 63.9613 90.397 63.7906 90.2954 63.536C90.0617 63.4028 89.8316 63.3629 89.6729 63.3355C89.4528 63.2973 89.3702 63.283 89.6059 63.0764C89.8442 62.8676 90.1345 62.7539 90.3782 62.7079C90.5301 62.4798 90.8047 62.3652 91.2001 62.5338C91.5795 62.6954 92.3604 62.8176 92.9592 62.8488C92.5041 62.4791 91.9228 62.0899 91.6243 61.9426C91.2404 61.7533 91.1651 61.468 91.25 61.2073C91.1557 60.9549 91.0045 60.7765 90.9003 60.6535C90.7557 60.4829 90.7014 60.4189 91.0145 60.4117C91.331 60.4044 91.6265 60.5035 91.843 60.6247C92.1055 60.5472 92.3895 60.6355 92.5854 61.0188C92.8126 61.4636 93.5277 62.2412 93.9961 62.6185C94.2869 62.0752 94.6389 61.2332 95.0246 60.3106C95.732 58.6183 96.5528 56.6545 97.3177 55.7649C95.9048 54.6926 93.5656 52.897 93.0097 49.4334C92.6129 50.9545 92.36 52.5839 92.471 53.998L92.4837 54.0865C92.5045 54.1929 92.545 54.3207 92.5839 54.4436C92.6677 54.7082 92.7444 54.9503 92.6019 54.9078C91.0186 54.2958 88.1119 53.4246 86.2161 53.167C86.5389 53.5508 86.9497 53.9601 87.2246 54.1303C87.5548 54.3347 87.6136 54.5973 87.5249 54.8285C87.6182 55.0326 87.6859 55.3064 87.6565 55.5915C87.6274 55.8734 87.5737 55.8198 87.4309 55.677C87.328 55.5741 87.1787 55.4248 86.9588 55.3215C86.7184 55.3792 86.4676 55.2906 86.3252 54.9306C86.1351 54.4499 85.3648 53.1659 85.0527 53.0406C85.0081 53.0227 84.9666 53.002 84.9294 52.9787C84.8663 52.9839 84.7971 52.9777 84.7255 52.9622C84.3969 52.891 83.0415 53.5231 82.6155 53.8149C82.2965 54.0334 82.0392 53.9661 81.8722 53.7835C81.6323 53.7458 81.4252 53.7858 81.2824 53.8134C81.0843 53.8516 81.0099 53.866 81.1432 53.616C81.278 53.3633 81.487 53.1743 81.6782 53.0575C81.7339 52.8162 81.9293 52.6315 82.317 52.6473C82.7247 52.6639 83.5244 52.4861 84.0461 52.3025C83.6889 52.0465 82.4176 51.7279 81.943 51.687C81.558 51.6539 81.4012 51.4386 81.3873 51.1914C81.2253 51.01 81.0397 50.9096 80.9117 50.8404C80.7342 50.7444 80.6675 50.7084 80.9286 50.5993C81.1925 50.4891 81.4736 50.4754 81.6955 50.5062C81.891 50.3546 82.1589 50.3355 82.4492 50.5937C82.8205 50.9239 83.8233 51.3994 84.3076 51.5176C84.0404 51.0278 83.6156 50.4213 83.3886 50.1771C83.1252 49.8938 83.153 49.6287 83.3082 49.4359C83.3094 49.1925 83.2389 48.9933 83.1903 48.856C83.1229 48.6654 83.0976 48.5939 83.3642 48.6885C83.6337 48.7842 83.8514 48.9629 83.9954 49.1349C84.2418 49.1539 84.4533 49.3198 84.4959 49.7064C84.5589 50.2797 85.1207 51.5684 85.3765 51.7869C85.4021 51.8087 85.4258 51.8313 85.4472 51.8545C86.7382 51.6347 87.5523 51.663 88.8112 51.7067L88.8144 51.7068L88.8159 51.7069L88.8167 51.7069C89.0583 51.7153 89.3162 51.7242 89.597 51.7321C88.4054 51.2943 86.3662 49.6427 87.2845 46.707C87.5194 45.9562 87.9772 45.2807 88.5348 44.7243C87.896 44.452 87.2489 44.1451 86.6138 43.8114C86.6161 43.9473 86.6079 44.0834 86.5858 44.2164C85.8624 43.752 85.4574 43.3637 85.1958 43.0078L85.1711 42.9927C85.1989 43.2255 85.2026 43.4667 85.1641 43.6983C84.0904 43.009 83.7181 42.4873 83.4752 41.9907C81.4656 42.4431 78.868 43.1178 76.7518 44.3612C76.7487 44.3629 76.7457 44.3647 76.7426 44.3664C77.2513 44.6183 77.9987 44.8898 78.4011 44.9278C78.7999 44.9655 78.9742 45.1816 78.9977 45.4361C79.1772 45.5822 79.3648 45.8044 79.4677 46.0816C79.5695 46.3557 79.4954 46.3307 79.2981 46.2641C79.1558 46.2161 78.9496 46.1464 78.699 46.1517C78.503 46.3153 78.2305 46.3483 77.9344 46.0806C77.5391 45.723 76.2403 44.8883 75.8944 44.9154C75.8024 44.9227 75.716 44.9163 75.6426 44.8932C75.5695 44.9085 75.4858 44.9073 75.398 44.8932C75.0554 44.838 73.6934 45.5645 73.2704 45.8888C72.9537 46.1316 72.6848 46.0765 72.5027 45.8976C72.2533 45.872 72.0421 45.9247 71.8964 45.961C71.6944 46.0113 71.6185 46.0303 71.7422 45.7653C71.8671 45.4973 72.0721 45.2911 72.2628 45.16C72.3068 44.9083 72.498 44.7071 72.8985 44.7019C73.3405 44.6962 74.2161 44.4457 74.7381 44.2184C74.2013 44.0063 73.2206 43.8051 72.813 43.7832C72.4148 43.7618 72.2459 43.5449 72.2233 43.2903C72.0503 43.1086 71.8555 43.0112 71.7212 42.9441C71.5349 42.8509 71.4649 42.8159 71.7306 42.6948C71.9993 42.5724 72.2888 42.5489 72.5187 42.5733C72.7153 42.4104 72.991 42.3818 73.299 42.6385C73.5945 42.8847 74.259 43.2035 74.7852 43.3922C74.4777 42.9399 74.0629 42.4364 73.8358 42.2247C73.5438 41.9526 73.5528 41.6776 73.6983 41.4677C73.6816 41.2171 73.5943 41.0172 73.5342 40.8794C73.4507 40.6883 73.4194 40.6165 73.7008 40.6941C73.9853 40.7726 74.2226 40.9405 74.3835 41.1069C74.6386 41.1081 74.8685 41.2633 74.9408 41.6581C75.0282 42.1352 75.4916 43.0768 75.8114 43.5205C76.6548 42.7278 79.1742 41.0695 81.2961 39.7121C80.9298 39.2086 80.678 38.7051 80.5741 38.2144C80.3023 38.1631 79.957 38.3026 79.6158 38.5204C79.8979 35.4038 78.2056 32.0968 76.087 29.6941C75.9936 30.2695 75.9549 31.1083 76.0428 31.5215C76.1282 31.9225 75.9714 32.1589 75.7311 32.2597C75.6439 32.4797 75.4852 32.7309 75.2471 32.9163C75.0116 33.0996 75.0133 33.0196 75.0177 32.8065C75.0209 32.6528 75.0255 32.43 74.9437 32.1869C74.7246 32.0455 74.6091 31.7894 74.7789 31.4184C75.0057 30.9229 75.4201 29.3988 75.2878 29.0693C75.2848 29.0617 75.2818 29.0541 75.279 29.0465C75.1913 28.9977 75.1167 28.9059 75.0584 28.7918C74.8969 28.4756 73.477 27.7897 72.955 27.6364C72.564 27.5215 72.4469 27.2662 72.484 27.0077C72.3545 26.7864 72.1836 26.6438 72.0658 26.5454C71.9024 26.4091 71.841 26.3578 72.1335 26.2999C72.4293 26.2413 72.7227 26.2859 72.9455 26.3642C73.1791 26.2485 73.4599 26.2849 73.7061 26.6125C73.955 26.9437 74.5928 27.4515 75.0841 27.7601C74.8685 27.2013 74.4088 26.3886 74.1674 26.0772C73.9175 25.7549 73.9716 25.4791 74.1526 25.2913C74.1768 25.0359 74.1215 24.82 74.0834 24.6712C74.0305 24.4648 74.0106 24.3872 74.2817 24.5118C74.5557 24.6377 74.7675 24.8459 74.9026 25.0401C75.1595 25.0833 75.366 25.2774 75.3744 25.6874C75.3841 26.1653 75.6759 27.1366 75.9208 27.6534C76.0399 27.0659 76.0938 26.1543 76.061 25.767C76.0264 25.3603 76.2216 25.1585 76.4755 25.0997C76.6345 24.8986 76.7054 24.6874 76.7543 24.5418C76.8221 24.3397 76.8475 24.2639 77.0073 24.5162C77.1687 24.7714 77.2333 25.0616 77.241 25.2982C77.4331 25.4746 77.5009 25.7501 77.2851 26.0986C76.9652 26.6153 76.5945 28.0507 76.6648 28.3988C76.6749 28.4486 76.6808 28.4972 76.6818 28.5435C77.6701 29.2838 79.7015 31.684 81.3335 33.6123L81.5244 33.8379C81.9983 33.0225 82.5907 32.3535 83.1907 31.7725C83.0318 31.7728 82.8724 31.7593 82.718 31.727C83.6196 30.437 84.2234 30.2033 84.8397 29.9648C85.0339 29.8896 85.2294 29.814 85.4358 29.7046C85.972 29.1116 86.2517 28.5309 86.0188 27.8278C85.7092 27.4043 85.5426 27.0481 85.3937 26.7296C85.0985 26.0985 84.8724 25.6152 83.7407 25.0481C82.8559 24.6048 82.1875 24.277 81.7588 24.196C81.6922 24.1834 81.6263 24.171 81.5568 24.156C81.2778 24.096 80.5228 23.4474 80.7167 22.3465C81.3228 23.0551 81.9557 23.1333 82.9275 23.3203C83.1407 23.3467 83.3641 23.3743 83.5999 23.4172C84.2899 23.543 84.6815 23.4767 84.6815 23.4767C84.6815 23.4767 84.1017 22.4918 83.2634 22.1124C83.194 22.081 83.1271 22.0507 83.0627 22.0214C81.7638 21.4315 81.4431 21.2858 80.1501 21.5944C80.1501 20.6877 80.6823 20.102 81.091 19.8972C81.7381 19.5729 82.3439 19.728 82.9502 19.8833C83.6368 20.0591 84.324 20.2351 85.0728 19.7155C85.9129 19.1327 86.598 19.0513 88.1463 19.5235C88.4939 19.6295 88.8178 19.7453 89.1198 19.8701C89.7006 19.3248 90.2559 18.5788 90.2559 17.2537C91.0487 18.173 91.7693 19.2259 91.7693 20.5066C91.7693 20.5661 91.7691 20.6243 91.7687 20.6813C92.0175 20.5056 92.2544 20.3661 92.4726 20.2376C92.8865 19.9939 93.2329 19.79 93.4644 19.4537C93.8173 18.9413 93.9793 18.6525 94.1123 18.4156C94.2146 18.2333 94.2997 18.0816 94.4413 17.8823C95.0273 19.6502 95.1576 21.6145 94.2459 22.8586C93.8942 23.3384 93.4623 23.6492 93.0434 23.8471C93.1855 24.0996 93.2894 24.4198 93.3621 24.7926C93.491 25.1543 93.6549 25.414 93.8174 25.6714C94.1731 26.2346 94.5215 26.7865 94.4788 28.3716C94.0801 28.1874 93.7365 27.8629 93.4783 27.5599C93.4742 27.6465 93.4697 27.7338 93.4647 27.8215C93.5185 28.4203 93.6878 28.7938 93.8551 29.1628C94.1303 29.7696 94.3999 30.3642 94.1406 31.9284C93.761 31.6849 93.4594 31.3029 93.2438 30.9603C93.2888 31.162 93.3477 31.3419 93.4062 31.5208C93.6133 32.1542 93.8162 32.7748 93.3874 34.3011C93.1298 34.0927 92.9264 34.1438 92.7697 34.3036C94.1509 36.0162 95.9561 34.277 96.3824 33.0388C96.5932 32.4267 96.4581 31.8518 96.3048 31.1993C96.0639 30.1742 95.778 28.9573 96.7163 27.1025C97.2414 26.0645 98.7189 24.7742 100.476 23.2395C103.858 20.286 108.276 16.4277 108.935 11.7222C110.204 15.4998 108.802 19.6147 107.733 20.8964C108.81 20.2922 109.672 18.876 110.704 17.1813L110.704 17.1811C110.824 16.9839 110.946 16.783 111.072 16.5791C111.444 19.2523 111.048 21.0462 110.312 22.3611C114.775 20.3484 119.462 17.9117 121.17 14.3622C121.84 19.8241 118.121 22.742 115.368 24.014C116.93 24.014 119.831 23.1161 121.17 21.3953C121.17 25.66 116.261 28.5032 113.583 28.8773C114.773 29.2514 118.418 29.5506 120.055 27.9046C118.829 31.59 114.178 33.5161 111.649 33.2916C112.244 34.0398 113.286 34.4139 115.071 34.2643C114.029 36.7333 109.566 37.1074 107.335 36.6585C107.335 37.4815 108.376 38.4542 109.492 38.3794C109.194 39.1276 107.335 39.6513 105.178 38.6786C105.103 39.352 105.921 39.8009 107.186 40.4743C105.921 40.9981 103.764 41.1477 102.797 40.175C102.648 40.9232 103.318 41.5966 103.839 41.9707C102.797 42.27 100.566 41.7463 99.5987 40.624C99.5987 41.4012 100.139 41.8715 100.757 42.3269ZM86.7951 21.0303C86.741 21.0462 86.6893 21.0615 86.6395 21.0728C86.8304 21.1631 86.9588 21.3304 87.0863 21.4965C87.3615 21.8552 87.6328 22.2086 88.5211 21.771C87.6991 20.764 87.1854 20.9153 86.7951 21.0303Z" fill="#CAA74D"/>
</svg>
